<?xml version="1.0" encoding="UTF-8"?>
<svg version="1.1" xmlns="http://www.w3.org/2000/svg" width="256" height="256">
<path d="M0 0 C1.51262072 -0.00271666 3.02524012 -0.00628135 4.53785706 -0.01062012 C8.61003565 -0.01966468 12.68211184 -0.01623336 16.75429201 -0.00986195 C21.03503964 -0.0047624 25.31577909 -0.00950414 29.5965271 -0.01263428 C36.7800248 -0.01626168 43.96348123 -0.01150629 51.14697266 -0.00195312 C59.43131266 0.00893736 67.71555424 0.00539659 75.99989188 -0.00560594 C83.13824381 -0.01470393 90.27656626 -0.01595208 97.41492212 -0.0107286 C101.66729302 -0.00762375 105.91961776 -0.00715863 110.17198563 -0.01380157 C114.16940064 -0.0196114 118.1666896 -0.01551214 122.16409111 -0.00401306 C123.62410079 -0.00138618 125.08412122 -0.00209752 126.54412651 -0.00653839 C144.60622801 -0.05638085 158.70623653 3.4851344 172.31396484 15.84472656 C173.56787109 17.25878906 173.56787109 17.25878906 173.56787109 19.25878906 C174.22787109 19.25878906 174.88787109 19.25878906 175.56787109 19.25878906 C176.85248285 21.37641509 178.12011171 23.50172152 179.38037109 25.63378906 C179.73679688 26.21773437 180.09322266 26.80167969 180.46044922 27.40332031 C186.45386598 37.63061863 187.00601973 47.64588893 186.95605469 59.25830078 C186.96012679 60.85605222 186.96547223 62.45380084 186.97198486 64.05154419 C186.98559066 68.3657408 186.98038724 72.6797207 186.97084761 76.9939208 C186.96321328 81.52599229 186.97030729 86.05804613 186.9750061 90.59011841 C186.98045383 98.20090031 186.97329908 105.81159469 186.95898438 113.42236328 C186.94267151 122.19630773 186.94794042 130.97004285 186.96446359 139.7439822 C186.97812059 147.30101484 186.97997724 154.85798482 186.97214758 162.41502583 C186.96749264 166.91790194 186.96678552 171.42068001 186.97675705 175.92354965 C186.98548561 180.16066298 186.97929844 184.39750919 186.96207428 188.63459396 C186.95814014 190.18083759 186.95919011 191.72710408 186.96586227 193.27333832 C187.03209206 210.19459265 183.83165957 224.95235756 171.88037109 237.63378906 C157.01678205 251.52604934 141.43749113 253.41207495 121.96704102 253.40405273 C120.50736913 253.40704994 119.04769803 253.41045375 117.58802795 253.41423035 C113.64572787 253.42301708 109.70344952 253.42540619 105.76114058 253.42604613 C103.29207051 253.42675962 100.82300587 253.42889958 98.35393715 253.43154335 C89.72301511 253.44077889 81.09210846 253.44488045 72.46118164 253.4440918 C64.44335896 253.44349137 56.42560364 253.45404088 48.40779799 253.46983546 C41.50047657 253.48295272 34.59317706 253.48827395 27.68584329 253.48763639 C23.57084899 253.48738265 19.45591463 253.49016504 15.34093285 253.50081444 C11.46749767 253.5105663 7.59417888 253.51052657 3.72073936 253.50329781 C2.3083326 253.50226074 0.89591831 253.50456192 -0.51647568 253.51065826 C-17.95664755 253.58099319 -33.07893926 251.22262949 -46.43212891 239.25878906 C-47.07021484 238.6903125 -47.70830078 238.12183594 -48.36572266 237.53613281 C-57.26771397 229.13188725 -63.03899009 217.4564849 -63.56634998 205.1186142 C-63.57062346 203.93071541 -63.57489695 202.74281662 -63.57929993 201.5189209 C-63.58297661 200.85411854 -63.5866533 200.18931619 -63.59044141 199.50436831 C-63.60142597 197.28382873 -63.60531321 195.06333605 -63.60913086 192.84277344 C-63.61539964 191.24738417 -63.62204681 189.65199635 -63.62904358 188.05661011 C-63.65004347 182.82193002 -63.66044468 177.58724978 -63.67041016 172.35253906 C-63.67445975 170.54594406 -63.67857673 168.73934921 -63.68276024 166.93275452 C-63.70180587 158.44049597 -63.71603615 149.94824607 -63.72437221 141.45597029 C-63.73413149 131.67694043 -63.7604194 121.89813772 -63.8008731 112.11918783 C-63.83111802 104.54612084 -63.84584914 96.97311864 -63.84915322 89.39999247 C-63.85149485 84.88408726 -63.86033859 80.36842485 -63.8856144 75.85258484 C-63.90904616 71.59745879 -63.91306831 67.34273281 -63.90285301 63.08755875 C-63.90236113 61.53527107 -63.90857766 59.98296267 -63.92240906 58.43073654 C-64.05453525 42.70905407 -60.65004044 28.57064337 -50.02587891 16.53222656 C-35.36108824 2.25562153 -19.78327762 -0.06035808 0 0 Z " fill="#041504" transform="translate(65.43212890625,0.7412109375)"/>
<path d="M0 0 C3.48597092 1.40808869 6.64936547 3.45759709 9.8515625 5.41015625 C12.50073953 6.77939381 15.17248255 8.10053156 17.8515625 9.41015625 C17.8515625 10.07015625 17.8515625 10.73015625 17.8515625 11.41015625 C18.6146875 11.67828125 19.3778125 11.94640625 20.1640625 12.22265625 C22.86151843 13.41455538 23.89095277 14.29269774 25.8515625 16.41015625 C31.2328278 22.18031972 36.58367201 22.51598145 44.2265625 23.22265625 C45.34417969 23.34318359 46.46179688 23.46371094 47.61328125 23.58789062 C50.35797635 23.88112728 53.10315157 24.15454194 55.8515625 24.41015625 C55.8515625 25.07015625 55.8515625 25.73015625 55.8515625 26.41015625 C56.4084375 26.63703125 56.9653125 26.86390625 57.5390625 27.09765625 C60.47765499 28.76550604 62.54744731 30.98416091 64.8515625 33.41015625 C66.3432272 34.98061563 67.84392993 36.54251951 69.3515625 38.09765625 C70.08375 38.86464844 70.8159375 39.63164063 71.5703125 40.421875 C73.94771443 42.4939599 75.91351257 43.34613164 78.8515625 44.41015625 C81.6640625 46.59765625 81.6640625 46.59765625 83.8515625 49.41015625 C84.1640625 53.22265625 84.1640625 53.22265625 83.8515625 56.41015625 C84.4084375 56.47203125 84.9653125 56.53390625 85.5390625 56.59765625 C90.27380338 58.26121385 93.79888198 62.78021799 96.11328125 67.1328125 C98.07253386 73.176433 98.26021046 80.27477853 95.640625 86.10546875 C94.15632306 88.3281544 92.56272738 90.35930603 90.8515625 92.41015625 C90.2121875 93.46203125 89.5728125 94.51390625 88.9140625 95.59765625 C85.06341899 100.84853377 80.91262009 104.09858173 74.8515625 106.41015625 C72.23651 107.70396033 69.64842581 109.04326764 67.05859375 110.38671875 C64.8515625 111.41015625 64.8515625 111.41015625 62.8515625 111.41015625 C62.3565625 112.89515625 62.3565625 112.89515625 61.8515625 114.41015625 C58.74692979 116.38040393 55.83868389 118.03049418 52.4140625 119.34765625 C49.31607779 120.63218649 46.66795644 122.3659622 43.84765625 124.16796875 C37.03080778 128.41015625 37.03080778 128.41015625 33.8515625 128.41015625 C33.8515625 129.07015625 33.8515625 129.73015625 33.8515625 130.41015625 C31.72923271 131.58192143 29.60398459 132.7477041 27.4765625 133.91015625 C26.57164063 134.41095703 26.57164063 134.41095703 25.6484375 134.921875 C21.078125 137.41015625 21.078125 137.41015625 18.8515625 137.41015625 C18.8515625 138.07015625 18.8515625 138.73015625 18.8515625 139.41015625 C17.56242763 140.08170558 16.27016046 140.74724484 14.9765625 141.41015625 C14.25726563 141.78140625 13.53796875 142.15265625 12.796875 142.53515625 C10.8515625 143.41015625 10.8515625 143.41015625 8.8515625 143.41015625 C8.8515625 144.40015625 8.8515625 145.39015625 8.8515625 146.41015625 C1.60554837 150.70409055 -5.83733022 152.00918265 -14.1484375 150.41015625 C-19.5604104 147.30798947 -23.32914979 143.43769535 -25.1484375 137.41015625 C-25.34375 134.734375 -25.34375 134.734375 -25.2734375 132.09765625 C-25.25539063 131.21464844 -25.23734375 130.33164063 -25.21875 129.421875 C-25.19554688 128.75800781 -25.17234375 128.09414062 -25.1484375 127.41015625 C-24.4884375 127.41015625 -23.8284375 127.41015625 -23.1484375 127.41015625 C-23.07359131 126.66588379 -22.99874512 125.92161133 -22.92163086 125.15478516 C-21.04447058 118.49136999 -12.42045098 114.44371488 -6.73828125 111.13671875 C-4.85891503 110.0942578 -2.97463684 109.06061078 -1.0859375 108.03515625 C0.95764052 106.90213989 3.00060562 105.76801735 5.04296875 104.6328125 C6.03570801 104.08383301 7.02844727 103.53485352 8.05126953 102.96923828 C13.92293076 99.70015122 19.70145486 96.27657498 25.46875 92.82763672 C27.24099163 91.77337085 29.0177642 90.72671411 30.796875 89.68408203 C33.98897535 87.81303672 37.17079321 85.92538754 40.3515625 84.03515625 C41.37443359 83.43968994 42.39730469 82.84422363 43.45117188 82.23071289 C44.39798828 81.66344482 45.34480469 81.09617676 46.3203125 80.51171875 C47.17044922 80.00979004 48.02058594 79.50786133 48.89648438 78.99072266 C51.12162091 77.19182981 51.51621015 76.20400389 51.8515625 73.41015625 C46.85859955 70.46558835 42.51598624 69.77519689 36.8515625 69.41015625 C36.8515625 68.42015625 36.8515625 67.43015625 36.8515625 66.41015625 C35.87316406 66.28060547 35.87316406 66.28060547 34.875 66.1484375 C28.74226753 65.16249673 25.16263119 63.94812329 20.8515625 59.41015625 C20.8515625 58.75015625 20.8515625 58.09015625 20.8515625 57.41015625 C20.1915625 57.41015625 19.5315625 57.41015625 18.8515625 57.41015625 C18.3978125 56.27578125 17.9440625 55.14140625 17.4765625 53.97265625 C16.28060444 50.36293933 16.28060444 50.36293933 13.8515625 49.41015625 C13.8515625 48.75015625 13.8515625 48.09015625 13.8515625 47.41015625 C13.12179199 47.1354248 12.39202148 46.86069336 11.64013672 46.57763672 C8.99770374 45.47134058 6.67836337 44.21760051 4.234375 42.73046875 C3.37972656 42.21355469 2.52507812 41.69664063 1.64453125 41.1640625 C0.76410156 40.62652344 -0.11632812 40.08898437 -1.0234375 39.53515625 C-2.77042053 38.47458014 -4.51780898 37.41467154 -6.265625 36.35546875 C-7.51037598 35.5979834 -7.51037598 35.5979834 -8.78027344 34.82519531 C-10.90483934 33.55571243 -13.05118437 32.34621987 -15.21875 31.15234375 C-18.1484375 29.41015625 -18.1484375 29.41015625 -19.1484375 27.41015625 C-19.9734375 26.95640625 -20.7984375 26.50265625 -21.6484375 26.03515625 C-24.1484375 24.41015625 -24.1484375 24.41015625 -24.9609375 22.72265625 C-25.57432875 15.15749756 -25.53825322 10.59857517 -20.58984375 4.484375 C-14.64797968 -1.67984573 -8.11994581 -2.22929421 0 0 Z " fill="#9CF0A3" transform="translate(95.1484375,52.58984375)"/>
<path d="M0 0 C3.48597092 1.40808869 6.64936547 3.45759709 9.8515625 5.41015625 C12.50073953 6.77939381 15.17248255 8.10053156 17.8515625 9.41015625 C17.8515625 10.07015625 17.8515625 10.73015625 17.8515625 11.41015625 C18.6146875 11.67828125 19.3778125 11.94640625 20.1640625 12.22265625 C22.86151843 13.41455538 23.89095277 14.29269774 25.8515625 16.41015625 C31.2328278 22.18031972 36.58367201 22.51598145 44.2265625 23.22265625 C45.34417969 23.34318359 46.46179688 23.46371094 47.61328125 23.58789062 C50.35797635 23.88112728 53.10315157 24.15454194 55.8515625 24.41015625 C55.8515625 25.07015625 55.8515625 25.73015625 55.8515625 26.41015625 C52.2215625 26.41015625 48.5915625 26.41015625 44.8515625 26.41015625 C44.8515625 27.07015625 44.8515625 27.73015625 44.8515625 28.41015625 C45.4909375 28.49265625 46.1303125 28.57515625 46.7890625 28.66015625 C51.81944475 29.8920866 57.14820175 31.7067955 60.8515625 35.41015625 C60.4765625 37.53515625 60.4765625 37.53515625 59.8515625 39.41015625 C59.4596875 38.93578125 59.0678125 38.46140625 58.6640625 37.97265625 C54.20220337 34.12622597 47.41184821 35.31298621 41.8515625 35.41015625 C42.2524197 36.83137723 42.67306413 38.24702331 43.1015625 39.66015625 C43.33359375 40.4490625 43.565625 41.23796875 43.8046875 42.05078125 C45.110362 44.99342079 46.26120199 46.47602041 48.8515625 48.41015625 C52.34428502 49.10795007 52.34428502 49.10795007 56.1015625 49.16015625 C57.36484375 49.216875 58.628125 49.27359375 59.9296875 49.33203125 C60.89390625 49.3578125 61.858125 49.38359375 62.8515625 49.41015625 C62.8515625 46.77015625 62.8515625 44.13015625 62.8515625 41.41015625 C66.86220795 42.74703807 68.93649915 44.40675765 71.8515625 47.41015625 C72.9034375 48.04953125 73.9553125 48.68890625 75.0390625 49.34765625 C77.8515625 51.41015625 77.8515625 51.41015625 78.9140625 53.84765625 C78.83124459 57.24319045 77.98380262 58.78039343 75.8515625 61.41015625 C67.09676892 65.8882719 54.99992338 63.4681808 45.4765625 62.59765625 C44.65728271 62.52772461 43.83800293 62.45779297 42.99389648 62.38574219 C35.35832945 61.61099643 28.26949589 59.75778855 21.8515625 55.41015625 C22.97961403 58.16184681 24.05644182 59.98255802 26.71923828 61.41455078 C29.09660495 62.34686164 31.48782364 63.17615078 33.9140625 63.97265625 C35.63308321 64.57083721 37.3518359 65.16978896 39.0703125 65.76953125 C39.8953125 66.05119141 40.7203125 66.33285156 41.5703125 66.62304688 C44.37803669 67.59180788 47.15087649 68.63363588 49.9140625 69.72265625 C51.01427734 70.14998047 51.01427734 70.14998047 52.13671875 70.5859375 C53.8515625 71.41015625 53.8515625 71.41015625 55.8515625 73.41015625 C56.2890625 75.84765625 56.2890625 75.84765625 55.8515625 78.41015625 C53.4682679 80.22898634 51.89337913 81.41015625 48.8515625 81.41015625 C48.3565625 82.89515625 48.3565625 82.89515625 47.8515625 84.41015625 C49.0478125 84.14203125 50.2440625 83.87390625 51.4765625 83.59765625 C55.25669231 83.11182971 55.65509052 83.26869643 58.9765625 85.66015625 C59.9253125 86.56765625 60.8740625 87.47515625 61.8515625 88.41015625 C66.82991027 91.49939884 71.03327587 91.92878758 76.7265625 92.09765625 C77.5103125 92.13181641 78.2940625 92.16597656 79.1015625 92.20117188 C81.01774998 92.28296037 82.93462965 92.34825085 84.8515625 92.41015625 C81.12107541 96.71456443 76.45574867 99.31047223 71.6015625 102.16015625 C70.78042969 102.66675781 69.95929688 103.17335938 69.11328125 103.6953125 C63.703854 106.87581568 60.12878126 108.10685855 53.8515625 107.41015625 C49.14711219 105.50597398 45.38569017 101.78435114 42.8515625 97.41015625 C42.10060394 94.0649772 41.86533816 90.83340732 41.8515625 87.41015625 C41.1915625 88.07015625 40.5315625 88.73015625 39.8515625 89.41015625 C35.89511163 90.67920653 31.93830452 91.66711225 27.8515625 92.41015625 C30.14935666 89.89222247 32.52414952 88.30762306 35.484375 86.6328125 C36.37253906 86.11912109 37.26070312 85.60542969 38.17578125 85.07617188 C40.04717893 84.00475103 41.92221632 82.93966326 43.80078125 81.88085938 C45.12916016 81.10838867 45.12916016 81.10838867 46.484375 80.3203125 C47.29793457 79.85761963 48.11149414 79.39492676 48.94970703 78.91821289 C51.15738396 77.16765828 51.50840043 76.15803574 51.8515625 73.41015625 C46.85859955 70.46558835 42.51598624 69.77519689 36.8515625 69.41015625 C36.8515625 68.42015625 36.8515625 67.43015625 36.8515625 66.41015625 C35.87316406 66.28060547 35.87316406 66.28060547 34.875 66.1484375 C28.74226753 65.16249673 25.16263119 63.94812329 20.8515625 59.41015625 C20.8515625 58.75015625 20.8515625 58.09015625 20.8515625 57.41015625 C20.1915625 57.41015625 19.5315625 57.41015625 18.8515625 57.41015625 C18.3978125 56.27578125 17.9440625 55.14140625 17.4765625 53.97265625 C16.28060444 50.36293933 16.28060444 50.36293933 13.8515625 49.41015625 C13.8515625 48.75015625 13.8515625 48.09015625 13.8515625 47.41015625 C13.12179199 47.1354248 12.39202148 46.86069336 11.64013672 46.57763672 C8.99770374 45.47134058 6.67836337 44.21760051 4.234375 42.73046875 C3.37972656 42.21355469 2.52507812 41.69664063 1.64453125 41.1640625 C0.76410156 40.62652344 -0.11632812 40.08898437 -1.0234375 39.53515625 C-2.77042053 38.47458014 -4.51780898 37.41467154 -6.265625 36.35546875 C-7.51037598 35.5979834 -7.51037598 35.5979834 -8.78027344 34.82519531 C-10.90483934 33.55571243 -13.05118437 32.34621987 -15.21875 31.15234375 C-18.1484375 29.41015625 -18.1484375 29.41015625 -19.1484375 27.41015625 C-19.9734375 26.95640625 -20.7984375 26.50265625 -21.6484375 26.03515625 C-24.1484375 24.41015625 -24.1484375 24.41015625 -24.9609375 22.72265625 C-25.57432875 15.15749756 -25.53825322 10.59857517 -20.58984375 4.484375 C-14.64797968 -1.67984573 -8.11994581 -2.22929421 0 0 Z " fill="#95EF9C" transform="translate(95.1484375,52.58984375)"/>
<path d="M0 0 C11.6836403 -0.78006501 11.6836403 -0.78006501 16.375 2 C17.24125 2.99 18.1075 3.98 19 5 C19.59425781 5.66257812 20.18851563 6.32515625 20.80078125 7.0078125 C22.01291232 8.36800927 23.20974158 9.74208545 24.38671875 11.1328125 C27.37839011 14.69553449 27.37839011 14.69553449 31.375 16.875 C34.85268605 18.36543688 36.67732762 20.01370695 39 23 C39.3125 26.8125 39.3125 26.8125 39 30 C39.556875 30.061875 40.11375 30.12375 40.6875 30.1875 C45.42224088 31.8510576 48.94731948 36.37006174 51.26171875 40.72265625 C53.23007528 46.7943592 53.35919969 53.84358609 50.82421875 59.73046875 C49.35369676 61.9989484 47.80693268 63.99182127 46 66 C45.154375 66.94875 44.30875 67.8975 43.4375 68.875 C41.04050936 70.96468415 38.87612059 72.63762709 36 74 C35.01 73.67 34.02 73.34 33 73 C35 71 37 69 39 67 C37.42412109 66.97873047 37.42412109 66.97873047 35.81640625 66.95703125 C27.54619515 66.72262489 20.73904811 66.36025436 14 61 C13.5359375 60.44441406 13.071875 59.88882813 12.59375 59.31640625 C11.0254813 57.74691211 11.0254813 57.74691211 8.51953125 57.92578125 C7.62621094 58.05339844 6.73289063 58.18101562 5.8125 58.3125 C4.91144531 58.43238281 4.01039063 58.55226562 3.08203125 58.67578125 C2.39496094 58.78277344 1.70789063 58.88976562 1 59 C3.33333333 56.66666667 5.66666667 54.33333333 8 52 C8.99 52 9.98 52 11 52 C10.75004507 49.06369124 10.75004507 49.06369124 9 46 C5.91050244 44.09492875 2.42966925 43.14060101 -1 42 C-3.45401822 41.13752185 -5.90230025 40.26082938 -8.34790039 39.37475586 C-10.05703259 38.75616827 -11.76974781 38.14738123 -13.48608398 37.54907227 C-14.68213257 37.1206604 -14.68213257 37.1206604 -15.90234375 36.68359375 C-16.97730103 36.30545532 -16.97730103 36.30545532 -18.07397461 35.91967773 C-20.24207682 34.88440824 -21.51589414 33.88782926 -23 32 C-23 31.01 -23 30.02 -23 29 C-20.13275314 29.57344937 -19.1385485 29.8614515 -17 32 C-14.5305791 32.61588182 -12.12646373 33.1256725 -9.625 33.5625 C-8.90256104 33.69180908 -8.18012207 33.82111816 -7.43579102 33.9543457 C1.31382705 35.4683115 9.999881 36.07291047 18.875 36.25 C20.08929688 36.27578125 21.30359375 36.3015625 22.5546875 36.328125 C26.41544799 35.96043352 28.78028291 35.15451129 32 33 C32.92375299 30.99005663 32.92375299 30.99005663 32.875 28.8125 C32.91625 27.554375 32.9575 26.29625 33 25 C32.46375 24.7525 31.9275 24.505 31.375 24.25 C27.11589272 22.00836459 23.32205789 19.48816079 20 16 C19.34 15.67 18.68 15.34 18 15 C18 17.64 18 20.28 18 23 C5.89386401 23.89552239 5.89386401 23.89552239 1.76953125 21.9453125 C-1.24974214 19.18696398 -2.30951401 16.64782437 -2.875 12.625 C-2.91625 11.42875 -2.9575 10.2325 -3 9 C2.61659063 7.12780312 7.58977373 7.73525412 13 10 C13.66 10.66 14.32 11.32 15 12 C14.86556047 10.07314978 14.86556047 10.07314978 14 8 C11.84058621 6.4579092 11.84058621 6.4579092 9.1875 5.3125 C8.31480469 4.89613281 7.44210938 4.47976562 6.54296875 4.05078125 C4.35568562 3.14697301 2.30918184 2.48982645 0 2 C0 1.34 0 0.68 0 0 Z " fill="#A1F4A9" transform="translate(140,79)"/>
<path d="M0 0 C0 0.99 0 1.98 0 3 C1.0725 3.103125 2.145 3.20625 3.25 3.3125 C6.85820872 3.97400493 8.36395023 4.57483421 11 7 C10.67 7.99 10.34 8.98 10 10 C9.34 10 8.68 10 8 10 C8.26676204 11.98491642 8.26676204 11.98491642 9 14 C9.99 14.33 10.98 14.66 12 15 C12 14.34 12 13.68 12 13 C18.50409143 10.83196952 25.55765865 12.04078939 32.125 13.3125 C32.80175781 13.43044922 33.47851562 13.54839844 34.17578125 13.66992188 C39.49417864 14.67290784 44.11927521 16.11927521 48 20 C47.625 22.125 47.625 22.125 47 24 C46.608125 23.525625 46.21625 23.05125 45.8125 22.5625 C41.35064087 18.71606972 34.56028571 19.90282996 29 20 C29.4008572 21.42122098 29.82150163 22.83686706 30.25 24.25 C30.59804687 25.43335938 30.59804687 25.43335938 30.953125 26.640625 C32.2587995 29.58326454 33.40963949 31.06586416 36 33 C39.49272252 33.69779382 39.49272252 33.69779382 43.25 33.75 C45.14492187 33.83507812 45.14492187 33.83507812 47.078125 33.921875 C48.04234375 33.94765625 49.0065625 33.9734375 50 34 C50 31.36 50 28.72 50 26 C54.01064545 27.33688182 56.08493665 28.9966014 59 32 C60.051875 32.639375 61.10375 33.27875 62.1875 33.9375 C65 36 65 36 66.0625 38.4375 C65.97968209 41.8330342 65.13224012 43.37023718 63 46 C54.21942122 50.4913049 42.0516386 48.05158251 32.5 47.1875 C31.6639624 47.11756836 30.8279248 47.04763672 29.96655273 46.97558594 C21.82879176 46.15650704 16.74417043 44.063291 11 38 C9.515 37.505 9.515 37.505 8 37 C7.05078125 34.34765625 7.05078125 34.34765625 6.3125 31.0625 C6.06113281 29.98097656 5.80976562 28.89945313 5.55078125 27.78515625 C5 25 5 25 5 23 C3.35 23.33 1.7 23.66 0 24 C0 24.66 0 25.32 0 26 C-3.83964463 26.56465362 -4.92395424 26.05627386 -8.125 23.6875 C-9.07375 22.800625 -10.0225 21.91375 -11 21 C-11.54527344 20.54882812 -12.09054688 20.09765625 -12.65234375 19.6328125 C-14.95258463 16.84585399 -14.46078241 13.98492245 -14.359375 10.51171875 C-13.84110732 6.88947833 -12.38334116 4.72381847 -10 2 C-6.3558226 -0.4294516 -4.28758728 -0.16179575 0 0 Z " fill="#0E5611" transform="translate(108,68)"/>
<path d="M0 0 C0.556875 0.28875 1.11375 0.5775 1.6875 0.875 C4.02806407 2.05960441 4.02806407 2.05960441 6.6875 3 C9 4 9 4 10 6 C10.09706713 8.14404169 10.12978536 10.29126751 10.125 12.4375 C10.12886719 14.16806641 10.12886719 14.16806641 10.1328125 15.93359375 C10 19 10 19 9 22 C7.2578125 23.1328125 7.2578125 23.1328125 5.125 24.125 C4.42632812 24.45757812 3.72765625 24.79015625 3.0078125 25.1328125 C-3.49111855 27.93974381 -10.81149327 28.05763875 -17.5 25.6875 C-22.31072916 23.3680413 -22.31072916 23.3680413 -24 21 C-24.29296875 17.86328125 -24.29296875 17.86328125 -24.1875 14.3125 C-24.16042969 13.13300781 -24.13335937 11.95351562 -24.10546875 10.73828125 C-24.07066406 9.83464844 -24.03585938 8.93101563 -24 8 C-22.91460937 7.97421875 -21.82921875 7.9484375 -20.7109375 7.921875 C-19.26558651 7.86556262 -17.82027556 7.808216 -16.375 7.75 C-15.66214844 7.73582031 -14.94929687 7.72164063 -14.21484375 7.70703125 C-9.09610556 7.47222675 -6.07007197 6.34894811 -2 3 C-1.34 2.01 -0.68 1.02 0 0 Z " fill="#1E8924" transform="translate(178,114)"/>
<path d="M0 0 C2.77119317 1.6444443 2.90873171 3.75854984 3.71484375 6.8046875 C5.28011289 11.9670065 6.39995079 14.8810776 10.77734375 18.0546875 C12.95080943 18.91587884 12.95080943 18.91587884 14.77734375 19.0546875 C14.77734375 19.7146875 14.77734375 20.3746875 14.77734375 21.0546875 C13.03323074 22.29131612 11.2302789 23.44570885 9.40234375 24.5546875 C5.34791228 26.99685257 5.34791228 26.99685257 1.77734375 30.0546875 C-2.26338574 30.62170272 -6.18062801 30.59974071 -10.22265625 30.0546875 C-13.34765625 27.6796875 -13.34765625 27.6796875 -15.22265625 25.0546875 C-15.88265625 24.3946875 -16.54265625 23.7346875 -17.22265625 23.0546875 C-17.55859375 20.62890625 -17.55859375 20.62890625 -17.59765625 17.7421875 C-17.62601562 16.79730469 -17.654375 15.85242188 -17.68359375 14.87890625 C-16.91259802 10.15492392 -14.25293249 7.85163647 -10.56640625 5 C-9.62796875 4.39929688 -8.68953125 3.79859375 -7.72265625 3.1796875 C-6.78421875 2.56351563 -5.84578125 1.94734375 -4.87890625 1.3125 C-2.22265625 0.0546875 -2.22265625 0.0546875 0 0 Z " fill="#218C27" transform="translate(134.22265625,143.9453125)"/>
<path d="M0 0 C0.03738281 0.59167969 0.07476562 1.18335938 0.11328125 1.79296875 C0.52093883 6.69285299 1.19397011 9.85195582 4 14 C4 14.99 4 15.98 4 17 C6.31 17.66 8.62 18.32 11 19 C10.83984375 20.765625 10.83984375 20.765625 10 23 C4.1180509 27.76757653 -2.19530471 31.1075477 -9.875 30.4921875 C-14.17081228 29.49720157 -16.14986575 27.05533907 -18.8125 23.75 C-20.44287306 19.97439922 -20.20812033 17.09303313 -20 13 C-19.34 13 -18.68 13 -18 13 C-17.90138672 11.86111328 -17.90138672 11.86111328 -17.80078125 10.69921875 C-16.74491771 7.14018602 -15.3966036 6.56505585 -12.1875 4.8125 C-10.87845703 4.07966797 -10.87845703 4.07966797 -9.54296875 3.33203125 C-8.70378906 2.89246094 -7.86460938 2.45289063 -7 2 C-5.94232422 1.41798828 -5.94232422 1.41798828 -4.86328125 0.82421875 C-3 0 -3 0 0 0 Z " fill="#218A25" transform="translate(114,157)"/>
<path d="M0 0 C2.58882894 1.29441447 4.62787239 3.1183967 6.875 4.9375 C11.88850993 7.99213853 16.03999142 8.45563534 21.75 8.625 C22.53375 8.65916016 23.3175 8.69332031 24.125 8.72851562 C26.04118748 8.81030412 27.95806715 8.8755946 29.875 8.9375 C26.14451291 13.24190818 21.47918617 15.83781598 16.625 18.6875 C15.80386719 19.19410156 14.98273438 19.70070312 14.13671875 20.22265625 C8.72826119 23.4025893 5.15152349 24.64025016 -1.125 23.9375 C-5.40190486 22.14716773 -9.02718569 19.12445997 -11.125 14.9375 C-11.63549568 11.54635016 -11.70334552 8.32234327 -11.125 4.9375 C-8.14216029 1.95466029 -4.30613462 -0.12665102 0 0 Z " fill="#219628" transform="translate(150.125,136.0625)"/>
<path d="M0 0 C0.02578125 0.64066406 0.0515625 1.28132812 0.078125 1.94140625 C0.47884467 8.05238116 1.35065594 12.03283725 5 17 C6.65661761 18.01656081 8.32111559 19.02065076 10 20 C10 21.32 10 22.64 10 24 C3.48937888 27.8786679 -2.31510782 30.55107916 -10 29 C-12.4375 27.1875 -12.4375 27.1875 -14 25 C-14.51691406 24.55914062 -15.03382812 24.11828125 -15.56640625 23.6640625 C-17.97660923 20.86638819 -17.53112193 18.04522043 -17.40234375 14.49609375 C-16.59382181 9.48011784 -13.57237404 7.19511442 -9.76953125 4.3046875 C-3.63284884 0 -3.63284884 0 0 0 Z " fill="#249229" transform="translate(92,169)"/>
<path d="M0 0 C2.4447817 1.22412474 4.83132304 2.4993169 7.19140625 3.87890625 C7.19140625 5.19890625 7.19140625 6.51890625 7.19140625 7.87890625 C4.37890625 9.94140625 4.37890625 9.94140625 1.19140625 11.87890625 C-1.04243017 13.63443887 -1.7267372 14.46492682 -2.28515625 17.2890625 C-2.33414063 18.16433594 -2.383125 19.03960937 -2.43359375 19.94140625 C-2.72819174 24.71810223 -2.72819174 24.71810223 -3.80859375 26.87890625 C-9.22956432 26.54009559 -12.89342681 23.35340505 -16.80859375 19.87890625 C-19.73100699 16.40854052 -20.34506614 13.43456786 -20.1640625 8.875 C-19.56736625 5.52432107 -17.98896286 3.42267021 -15.80859375 0.87890625 C-10.70958677 -2.19953987 -5.47775512 -2.1865309 0 0 Z " fill="#259028" transform="translate(94.80859375,58.12109375)"/>
<path d="M0 0 C0 0.99 0 1.98 0 3 C0.7425 2.484375 1.485 1.96875 2.25 1.4375 C5 0 5 0 7.171875 0.41015625 C7.77515625 0.60480469 8.3784375 0.79945313 9 1 C4.74768646 3.76453138 0.71354936 6.11458026 -4 8 C-6.02695419 9.21447986 -8.01277067 10.48559355 -10.00390625 11.7578125 C-16.82075472 16 -16.82075472 16 -20 16 C-20 16.66 -20 17.32 -20 18 C-22.12232979 19.17176518 -24.24757791 20.33754785 -26.375 21.5 C-26.97828125 21.83386719 -27.5815625 22.16773438 -28.203125 22.51171875 C-32.7734375 25 -32.7734375 25 -35 25 C-35 25.66 -35 26.32 -35 27 C-36.28913487 27.67154933 -37.58140204 28.33708859 -38.875 29 C-39.59429687 29.37125 -40.31359375 29.7425 -41.0546875 30.125 C-43 31 -43 31 -45 31 C-45 31.99 -45 32.98 -45 34 C-52.24601413 38.2939343 -59.68889272 39.5990264 -68 38 C-73.4119729 34.89783322 -77.18071229 31.0275391 -79 25 C-79.1953125 22.32421875 -79.1953125 22.32421875 -79.125 19.6875 C-79.10695313 18.80449219 -79.08890625 17.92148438 -79.0703125 17.01171875 C-79.04710938 16.34785156 -79.02390625 15.68398437 -79 15 C-78.34 15 -77.68 15 -77 15 C-76.9175 14.21625 -76.835 13.4325 -76.75 12.625 C-76 10 -76 10 -73.9375 8.6875 C-73.298125 8.460625 -72.65875 8.23375 -72 8 C-73.875 12.875 -73.875 12.875 -75 14 C-75.23653523 16.52596259 -75.42173692 19.03107207 -75.5625 21.5625 C-75.60568359 22.27341797 -75.64886719 22.98433594 -75.69335938 23.71679688 C-75.79971777 25.47761912 -75.90038846 27.2387832 -76 29 C-75.34 29 -74.68 29 -74 29 C-73.67 28.01 -73.34 27.02 -73 26 C-71.62437146 27.28965176 -70.29233607 28.62689293 -69 30 C-69 30.66 -69 31.32 -69 32 C-61.04842211 32.47709467 -55.8846614 32.07979935 -49 28 C-48.34 28 -47.68 28 -47 28 C-47 26.35 -47 24.7 -47 23 C-45.741875 22.979375 -44.48375 22.95875 -43.1875 22.9375 C-37.61667155 22.38305736 -33.99692179 19.66731349 -29.578125 16.3984375 C-27 15 -27 15 -24.625 15.52734375 C-20.63768012 16.24529867 -18.0379199 14.20322683 -14.75 12.1875 C-13.79480469 11.63352539 -13.79480469 11.63352539 -12.8203125 11.06835938 C-9.32471137 9.12411428 -9.32471137 9.12411428 -7 6 C-8.32 6.33 -9.64 6.66 -11 7 C-8.21677024 3.90752249 -4.31039412 0 0 0 Z " fill="#9DF3A4" transform="translate(149,165)"/>
<path d="M0 0 C4.13229203 -0.49193953 5.69398383 -0.2100111 9.1875 2.1875 C12 5 12 5 13.19921875 7.31640625 C15.71027803 11.05848374 18.96131928 13.19506476 22.625 15.75 C23.99250088 16.72351828 25.35970429 17.6974546 26.7265625 18.671875 C27.63269287 19.30754395 27.63269287 19.30754395 28.55712891 19.95605469 C30 21 30 21 31 22 C31.4241273 25.7323202 31.32491227 27.50102759 29.25 30.6875 C24.26678206 35.80914067 24.26678206 35.80914067 20.35546875 36.3984375 C8.78220409 36.31281532 -2.56310681 34.66720283 -14 33 C-14 32.67 -14 32.34 -14 32 C-12.73027344 32.0721875 -11.46054688 32.144375 -10.15234375 32.21875 C-1.98175562 32.66815625 6.19320016 33.08685344 14.375 33.25 C15.51710937 33.27578125 16.65921875 33.3015625 17.8359375 33.328125 C21.54515733 32.94346517 23.89211317 32.05506718 27 30 C27.92375299 27.99005663 27.92375299 27.99005663 27.875 25.8125 C27.91625 24.554375 27.9575 23.29625 28 22 C27.46375 21.7525 26.9275 21.505 26.375 21.25 C22.11589272 19.00836459 18.32205789 16.48816079 15 13 C14.34 12.67 13.68 12.34 13 12 C13 14.64 13 17.28 13 20 C0.89386401 20.89552239 0.89386401 20.89552239 -3.23046875 18.9453125 C-6.24974214 16.18696398 -7.30951401 13.64782437 -7.875 9.625 C-7.91625 8.42875 -7.9575 7.2325 -8 6 C-2.38340937 4.12780312 2.58977373 4.73525412 8 7 C8.66 7.66 9.32 8.32 10 9 C9.84896172 7.05600216 9.84896172 7.05600216 9 5 C6.9279446 3.64897007 6.9279446 3.64897007 4.4375 2.75 C3.61121094 2.41484375 2.78492188 2.0796875 1.93359375 1.734375 C0.97646484 1.37085937 0.97646484 1.37085937 0 1 C0 0.67 0 0.34 0 0 Z " fill="#30C23B" transform="translate(145,82)"/>
<path d="M0 0 C0 0.99 0 1.98 0 3 C1.0725 3.103125 2.145 3.20625 3.25 3.3125 C6.85820872 3.97400493 8.36395023 4.57483421 11 7 C10.67 7.99 10.34 8.98 10 10 C9.34 10 8.68 10 8 10 C7.67 11.32 7.34 12.64 7 14 C6.67 13.01 6.34 12.02 6 11 C4.68 11 3.36 11 2 11 C1.67 14.63 1.34 18.26 1 22 C2.32 22.33 3.64 22.66 5 23 C3.35 23.33 1.7 23.66 0 24 C0 24.66 0 25.32 0 26 C-3.83964463 26.56465362 -4.92395424 26.05627386 -8.125 23.6875 C-9.07375 22.800625 -10.0225 21.91375 -11 21 C-11.54527344 20.54882812 -12.09054688 20.09765625 -12.65234375 19.6328125 C-14.95258463 16.84585399 -14.46078241 13.98492245 -14.359375 10.51171875 C-13.84110732 6.88947833 -12.38334116 4.72381847 -10 2 C-6.3558226 -0.4294516 -4.28758728 -0.16179575 0 0 Z " fill="#25872B" transform="translate(108,68)"/>
<path d="M0 0 C6.6 0.66 13.2 1.32 20 2 C20 1.67 20 1.34 20 1 C23.50970681 0.88858074 25.72433844 0.88977578 29 2 C31.43893183 4.33139516 33.46027991 6.85535465 35.58203125 9.4765625 C39.37728812 13.43736369 43.89999477 15.18878319 49 17 C49 18.98 49 20.96 49 23 C51.63904371 24.41377341 54.07120629 25.37240135 57 26 C57.495 28.97 57.495 28.97 58 32 C58.33 30.35 58.66 28.7 59 27 C59.33 27 59.66 27 60 27 C60.04125 28.134375 60.0825 29.26875 60.125 30.4375 C60.67907638 35.21960538 62.90460859 38.31116549 65.72265625 42.1171875 C67 44 67 44 67 46 C68.485 46.495 68.485 46.495 70 47 C70.0543965 49.37531394 70.09385864 51.74935883 70.125 54.125 C70.14175781 54.79015625 70.15851563 55.4553125 70.17578125 56.140625 C70.21847278 60.49516056 69.59996217 63.95600114 68 68 C67.34 68 66.68 68 66 68 C65.62875 69.1446875 65.62875 69.1446875 65.25 70.3125 C63.89004442 73.2364045 62.68414174 74.30004356 60 76 C60.95683817 73.95218747 61.89343009 72.13628031 63.2890625 70.3515625 C67.39726793 65.04212741 67.79899887 60.09087004 67.55078125 53.48828125 C66.69733069 48.0830944 64.64470215 44.06335038 61 40 C57.86534653 37.83948488 57.86534653 37.83948488 55 37 C55 34.69 55 32.38 55 30 C54.38125 29.731875 53.7625 29.46375 53.125 29.1875 C51 28 51 28 49 25 C47.83984375 24.54560547 47.83984375 24.54560547 46.65625 24.08203125 C43.48631219 22.79074776 41.85499209 21.15443713 39.5 18.6875 C38.33597656 17.48480469 38.33597656 17.48480469 37.1484375 16.2578125 C36.43945312 15.51273438 35.73046875 14.76765625 35 14 C32.4454841 11.36998117 30.07400554 9.04933703 27 7 C27 6.34 27 5.68 27 5 C26.44054687 5.02320312 25.88109375 5.04640625 25.3046875 5.0703125 C17.83287089 5.23848844 10.27774432 4.76975057 3 3 C2.01 2.01 1.02 1.02 0 0 Z " fill="#16831F" transform="translate(124,72)"/>
<path d="M0 0 C2.475 0.495 2.475 0.495 5 1 C5 1.66 5 2.32 5 3 C5.763125 3.268125 6.52625 3.53625 7.3125 3.8125 C10.00995593 5.00439913 11.03939027 5.88254149 13 8 C18.3812653 13.77016347 23.73210951 14.1058252 31.375 14.8125 C32.49261719 14.93302734 33.61023438 15.05355469 34.76171875 15.17773438 C37.50641385 15.47097103 40.25158907 15.74438569 43 16 C43 16.66 43 17.32 43 18 C39.37 18 35.74 18 32 18 C32 18.66 32 19.32 32 20 C33.32 20.33 34.64 20.66 36 21 C34.7625 21.020625 33.525 21.04125 32.25 21.0625 C31.55390625 21.07410156 30.8578125 21.08570312 30.140625 21.09765625 C28 21 28 21 26.125 20.5 C23.29991219 19.83527346 20.64800629 19.90599993 17.75 19.9375 C16.13351563 19.95103516 16.13351563 19.95103516 14.484375 19.96484375 C13.25460938 19.98224609 13.25460938 19.98224609 12 20 C12 20.66 12 21.32 12 22 C10.68 21.67 9.36 21.34 8 21 C8 19.68 8 18.36 8 17 C8.66 16.67 9.32 16.34 10 16 C10 15.34 10 14.68 10 14 C6.7508723 11.6791945 3.94120709 10.56302958 0 10 C0.33 9.01 0.66 8.02 1 7 C1 7.66 1 8.32 1 9 C2.98 9 4.96 9 7 9 C5.6910428 5.87802522 5.6910428 5.87802522 3 4 C3 3.34 3 2.68 3 2 C2.01 1.67 1.02 1.34 0 1 C0 0.67 0 0.34 0 0 Z " fill="#91F798" transform="translate(108,61)"/>
<path d="M0 0 C0.59941406 0.66322266 0.59941406 0.66322266 1.2109375 1.33984375 C3.22812196 3.21168522 5.181658 4.29544184 7.625 5.5625 C12.82906749 8.33195683 17.92292514 11.25647731 23 14.25 C23.7420166 14.68642822 24.4840332 15.12285645 25.24853516 15.57250977 C28.21588699 17.32464415 31.1312758 19.0875172 34 21 C34 21.66 34 22.32 34 23 C34.9590625 23.309375 34.9590625 23.309375 35.9375 23.625 C38 25 38 25 38.75 28.125 C38.8325 29.07375 38.915 30.0225 39 31 C39.66 31 40.32 31 41 31 C41.680625 31.763125 42.36125 32.52625 43.0625 33.3125 C46.33332686 36.30495861 48.83684909 37.21502192 53.01171875 38.421875 C55 39 55 39 57 40 C57 40.99 57 41.98 57 43 C57.60328125 42.96519531 58.2065625 42.93039063 58.828125 42.89453125 C60.02695313 42.85392578 60.02695313 42.85392578 61.25 42.8125 C62.03890625 42.77769531 62.8278125 42.74289063 63.640625 42.70703125 C66.51712968 43.06421312 67.84576769 44.11751718 70 46 C63.23405981 46.11381955 56.71162938 45.88021369 50 45 C49.67 44.01 49.34 43.02 49 42 C46.72171642 41.32676943 44.47983723 41.0509564 42.12890625 40.72265625 C40 40 40 40 38.75 38.09375 C37.90969762 35.74790587 37.43985898 33.45064287 37 31 C35.97208168 27.91624505 35.29893164 27.12209075 33 25 C32.34185303 24.29484253 32.34185303 24.29484253 31.67041016 23.57543945 C29.78984036 21.80178893 27.87754148 20.60098837 25.6484375 19.29296875 C24.79636719 18.78830078 23.94429687 18.28363281 23.06640625 17.76367188 C22.17824219 17.24353516 21.29007813 16.72339844 20.375 16.1875 C16.90335236 14.14641953 13.4432697 12.08863733 10 10 C9.13536133 9.47744629 8.27072266 8.95489258 7.37988281 8.41650391 C6.56616211 7.90394043 5.75244141 7.39137695 4.9140625 6.86328125 C4.18396973 6.40864502 3.45387695 5.95400879 2.70166016 5.4855957 C0.69628954 3.73485249 0.36400072 2.59568011 0 0 Z " fill="#0F5E12" transform="translate(75,79)"/>
<path d="M0 0 C2.86724686 0.57344937 3.8614515 0.8614515 6 3 C7.96690374 3.67292501 7.96690374 3.67292501 10.125 4.125 C11.40375 4.41375 12.6825 4.7025 14 5 C14 5.66 14 6.32 14 7 C15.61068359 7.09087891 15.61068359 7.09087891 17.25390625 7.18359375 C18.69011315 7.26807651 20.12631058 7.35272054 21.5625 7.4375 C22.26697266 7.47681641 22.97144531 7.51613281 23.69726562 7.55664062 C26.97749197 7.75315188 30.15487643 8.02415504 33.40625 8.53125 C37.93986952 9.12259168 42.37226169 9.10763163 46.9375 9.0625 C47.81212891 9.05798828 48.68675781 9.05347656 49.58789062 9.04882812 C51.72529047 9.03714834 53.86265463 9.01921689 56 9 C56 9.66 56 10.32 56 11 C52.34696051 13.43535966 49.59758011 13.30428478 45.375 13.25 C44.30282227 13.24419922 44.30282227 13.24419922 43.20898438 13.23828125 C37.90392532 13.1517073 33.11794183 12.46226909 28 11 C28 11.66 28 12.32 28 13 C21.73524174 12.77625863 16.4546655 11.29206907 10.625 9.125 C9.92310547 8.86831543 9.22121094 8.61163086 8.49804688 8.34716797 C1.93847642 5.82632821 1.93847642 5.82632821 0 3 C0 2.01 0 1.02 0 0 Z " fill="#8DF598" transform="translate(117,108)"/>
<path d="M0 0 C1.39025391 0.86625 1.39025391 0.86625 2.80859375 1.75 C8.52081977 5.01495032 14.79091631 6.8840434 20.99414062 9 C26.17158025 10.81440732 30.71230112 12.52866763 35 16 C35.6875 18.5625 35.6875 18.5625 35 21 C32.6167054 22.81883009 31.04181663 24 28 24 C27.67 24.99 27.34 25.98 27 27 C27.66 27.66 28.32 28.32 29 29 C27.35 29.66 25.7 30.32 24 31 C23.67 33.97 23.34 36.94 23 40 C22.67 40 22.34 40 22 40 C21.505 35.05 21.505 35.05 21 30 C20.34 30.66 19.68 31.32 19 32 C15.04354913 33.26905028 11.08674202 34.256956 7 35 C9.29779416 32.48206622 11.67258702 30.89746681 14.6328125 29.22265625 C15.52097656 28.70896484 16.40914062 28.19527344 17.32421875 27.66601562 C19.19561643 26.59459478 21.07065382 25.52950701 22.94921875 24.47070312 C23.83480469 23.95572266 24.72039062 23.44074219 25.6328125 22.91015625 C26.44637207 22.44746338 27.25993164 21.98477051 28.09814453 21.50805664 C30.30582146 19.75750203 30.65683793 18.74787949 31 16 C26.00703705 13.0554321 21.66442374 12.36504064 16 12 C16 11.01 16 10.02 16 9 C15.34773437 8.91363281 14.69546875 8.82726562 14.0234375 8.73828125 C7.89070503 7.75234048 4.31106869 6.53796704 0 2 C0 1.34 0 0.68 0 0 Z " fill="#41C549" transform="translate(116,110)"/>
<path d="M0 0 C0.66 0 1.32 0 2 0 C2 0.66 2 1.32 2 2 C3.15048828 1.91298828 3.15048828 1.91298828 4.32421875 1.82421875 C12.24945966 1.50205449 19.35097435 2.42285648 27.0625 4.1875 C27.96637451 4.3836792 28.87024902 4.5798584 29.80151367 4.78198242 C35.32072011 6.1275634 38.40666752 7.55502531 42 12 C40.35 12 38.7 12 37 12 C36.505 11.01 36.505 11.01 36 10 C34.10466658 9.53476937 34.10466658 9.53476937 31.9375 9.375 C30.638125 9.25125 29.33875 9.1275 28 9 C28 9.33 28 9.66 28 10 C17.2141975 9.43153884 9.26314964 8.6713161 0 3 C0 2.01 0 1.02 0 0 Z " fill="#0B460E" transform="translate(117,65)"/>
<path d="M0 0 C0.33 0 0.66 0 1 0 C1 53.13 1 106.26 1 161 C0.67 161 0.34 161 0 161 C0 107.87 0 54.74 0 0 Z " fill="#031403" transform="translate(0,47)"/>
<path d="M0 0 C0.33 0 0.66 0 1 0 C1 52.8 1 105.6 1 160 C0.67 160 0.34 160 0 160 C0 107.2 0 54.4 0 0 Z " fill="#031303" transform="translate(253,47)"/>
<path d="M0 0 C11.6836403 -0.78006501 11.6836403 -0.78006501 16.375 2 C17.24125 2.99 18.1075 3.98 19 5 C19.59425781 5.66257812 20.18851563 6.32515625 20.80078125 7.0078125 C22.01291232 8.36800927 23.20974158 9.74208545 24.38671875 11.1328125 C27.3970078 14.71796084 27.3970078 14.71796084 31.4375 16.875 C34.83881694 18.3682611 36.11937525 19.79597265 38 23 C38.32274585 25.76127008 38.1895517 28.20411246 38 31 C37.67 31 37.34 31 37 31 C36.78988281 30.10539062 36.57976562 29.21078125 36.36328125 28.2890625 C34.67363595 24.21261165 32.78005019 22.88225451 29.1875 20.375 C28.14980469 19.64023438 27.11210937 18.90546875 26.04296875 18.1484375 C25.03878906 17.43945312 24.03460938 16.73046875 23 16 C19.02160745 12.99786548 16.7237704 10.17644795 14 6 C10.85426323 3.90284215 8.98543749 3.47995441 5.3125 2.875 C4.31863281 2.70742187 3.32476562 2.53984375 2.30078125 2.3671875 C1.54152344 2.24601562 0.78226563 2.12484375 0 2 C0 1.34 0 0.68 0 0 Z " fill="#8BF494" transform="translate(140,79)"/>
<path d="M0 0 C0.50286934 1.9575985 1.0022099 3.91610377 1.5 5.875 C1.7784375 6.96554688 2.056875 8.05609375 2.34375 9.1796875 C3 12 3 12 3 14 C3.8353125 14.061875 3.8353125 14.061875 4.6875 14.125 C8.24030274 15.46930374 9.70958953 18.00974189 12 21 C9.33333333 19.66666667 6.66666667 18.33333333 4 17 C4 17.66 4 18.32 4 19 C3.01 19 2.02 19 1 19 C0.54625 17.865625 0.0925 16.73125 -0.375 15.5625 C-1.57095806 11.95278308 -1.57095806 11.95278308 -4 11 C-4 10.34 -4 9.68 -4 9 C-4.7425 8.7525 -5.485 8.505 -6.25 8.25 C-9.20124062 6.90852699 -10.84814974 5.39094474 -13 3 C-9.71023192 1.90341064 -8.28696233 2.20046862 -5 3 C-5 2.34 -5 1.68 -5 1 C-3 0 -3 0 0 0 Z " fill="#99F5A0" transform="translate(113,91)"/>
<path d="M0 0 C2.97 0 5.94 0 9 0 C8.01 2.97 7.02 5.94 6 9 C8.79872437 6.47211993 10.45773019 4.79588866 11 1 C14.33717549 2.3809002 16.22301036 3.8201238 18 7 C17.57421875 9.1328125 17.57421875 9.1328125 17 11 C6.18691352 11.77605884 6.18691352 11.77605884 1.75 8.875 C-0.24783531 5.59284199 -0.43898196 3.77524481 0 0 Z " fill="#9BF6A4" transform="translate(139,89)"/>
<path d="M0 0 C2.375 0.6875 2.375 0.6875 5 2 C6.56938028 4.91456338 7 6.67941669 7 10 C8.0828125 9.7525 8.0828125 9.7525 9.1875 9.5 C12 10 12 10 13.4453125 11.7109375 C17 17.3375 17 17.3375 17 20 C17.99 20.33 18.98 20.66 20 21 C20.0543965 23.37531394 20.09385864 25.74935883 20.125 28.125 C20.14175781 28.79015625 20.15851563 29.4553125 20.17578125 30.140625 C20.21847278 34.49516056 19.59996217 37.95600114 18 42 C17.34 42 16.68 42 16 42 C15.7525 42.763125 15.505 43.52625 15.25 44.3125 C13.89004442 47.2364045 12.68414174 48.30004356 10 50 C10.95683817 47.95218747 11.89343009 46.13628031 13.2890625 44.3515625 C17.39726793 39.04212741 17.79899887 34.09087004 17.55078125 27.48828125 C16.69733069 22.0830944 14.64470215 18.06335038 11 14 C7.86534653 11.83948488 7.86534653 11.83948488 5 11 C5 8.69 5 6.38 5 4 C4.360625 3.71125 3.72125 3.4225 3.0625 3.125 C1 2 1 2 0 0 Z " fill="#40C04A" transform="translate(174,98)"/>
<path d="M0 0 C0.04254356 1.99954746 0.04080783 4.00041636 0 6 C-2.35241929 8.35241929 -8.21543113 7.18542134 -11.375 7.1875 C-12.34695312 7.19974609 -13.31890625 7.21199219 -14.3203125 7.22460938 C-15.72023437 7.22750977 -15.72023437 7.22750977 -17.1484375 7.23046875 C-18.43500244 7.23663208 -18.43500244 7.23663208 -19.74755859 7.24291992 C-22 7 -22 7 -25 5 C-22.82087591 2.82087591 -17.93053185 3.61310622 -14.98046875 3.4765625 C-8.87019673 2.49955963 -6.81016024 -0.34050801 0 0 Z " fill="#116616" transform="translate(184,119)"/>
<path d="M0 0 C0.66 0.33 1.32 0.66 2 1 C-0.26237627 3.47266124 -2.57453333 5.063866 -5.5 6.6875 C-6.66015625 7.34298828 -6.66015625 7.34298828 -7.84375 8.01171875 C-10 9 -10 9 -13 9 C-13 9.66 -13 10.32 -13 11 C-14.7664657 12.0076952 -16.53833823 13.00591714 -18.3125 14 C-19.79169922 14.8353125 -19.79169922 14.8353125 -21.30078125 15.6875 C-24 17 -24 17 -27 17 C-27.33 17.99 -27.66 18.98 -28 20 C-30.21484375 21.53515625 -30.21484375 21.53515625 -32.9375 23.0625 C-36.72081765 25.19623733 -36.72081765 25.19623733 -40 28 C-42.125 27.625 -42.125 27.625 -44 27 C-37.47656248 21.72625375 -30.41291042 17.62287504 -23.125 13.5 C-20.87713617 12.21957124 -18.62973368 10.93833221 -16.3828125 9.65625 C-15.30805664 9.04652344 -14.23330078 8.43679687 -13.12597656 7.80859375 C-9.33278588 5.61397046 -5.6177155 3.30482683 -1.92138672 0.95117188 C-0.97030029 0.4803418 -0.97030029 0.4803418 0 0 Z " fill="#40B348" transform="translate(121,145)"/>
<path d="M0 0 C17.54226475 0.54226475 17.54226475 0.54226475 24 7 C23.625 9.125 23.625 9.125 23 11 C22.608125 10.525625 22.21625 10.05125 21.8125 9.5625 C17.35064087 5.71606972 10.56028571 6.90282996 5 7 C4.67 7.99 4.34 8.98 4 10 C3.83723958 7.98177083 3.67447917 5.96354167 3.51171875 3.9453125 C3.12606964 1.60480784 3.12606964 1.60480784 0 0 Z " fill="#1E9F24" transform="translate(132,81)"/>
<path d="M0 0 C12.54 0 25.08 0 38 0 C38 0.66 38 1.32 38 2 C34.34696051 4.43535966 31.59758011 4.30428478 27.375 4.25 C26.30282227 4.24419922 26.30282227 4.24419922 25.20898438 4.23828125 C19.90392532 4.1517073 15.11794183 3.46226909 10 2 C10 2.66 10 3.32 10 4 C6.44219804 3.39009109 3.3171411 2.4216319 0 1 C0 0.67 0 0.34 0 0 Z " fill="#B1F9B9" transform="translate(135,117)"/>
<path d="M0 0 C7.92 0 15.84 0 24 0 C25.32 3.3 26.64 6.6 28 10 C27.67 10.66 27.34 11.32 27 12 C26.67 11.01 26.34 10.02 26 9 C24.35369807 7.88064927 24.35369807 7.88064927 22 7 C20.88625 6.525625 19.7725 6.05125 18.625 5.5625 C12.61485424 3.322978 6.27502202 2.24266588 0 1 C0 0.67 0 0.34 0 0 Z " fill="#093B0B" transform="translate(133,67)"/>
<path d="M0 0 C0 0.99 0 1.98 0 3 C0.7425 2.484375 1.485 1.96875 2.25 1.4375 C5 0 5 0 7.171875 0.41015625 C7.77515625 0.60480469 8.3784375 0.79945313 9 1 C4.74768646 3.76453138 0.71354936 6.11458026 -4 8 C-6.02695419 9.21447986 -8.01277067 10.48559355 -10.00390625 11.7578125 C-16.82075472 16 -16.82075472 16 -20 16 C-20 16.66 -20 17.32 -20 18 C-20.66 18 -21.32 18 -22 18 C-20.80739975 14.42219924 -19.57597051 14.00701096 -16.33984375 12.34570312 C-15.42912109 11.89614258 -15.42912109 11.89614258 -14.5 11.4375 C-10.03612348 9.51426058 -10.03612348 9.51426058 -7 6 C-8.32 6.33 -9.64 6.66 -11 7 C-8.21677024 3.90752249 -4.31039412 0 0 0 Z " fill="#70DD78" transform="translate(149,165)"/>
<path d="M0 0 C0.33 0 0.66 0 1 0 C1 2.31 1 4.62 1 7 C2.32 7.33 3.64 7.66 5 8 C4.01 8.33 3.02 8.66 2 9 C4.0072908 12.0109362 4.83884224 12.63016497 8 14 C7.67 14.66 7.34 15.32 7 16 C3.535 14.02 3.535 14.02 0 12 C-0.2475 12.598125 -0.495 13.19625 -0.75 13.8125 C-2.16370012 16.28647521 -3.65055383 17.43370255 -6 19 C-6.66 18.67 -7.32 18.34 -8 18 C-7.01 17.67 -6.02 17.34 -5 17 C-5 16.34 -5 15.68 -5 15 C-6.32 14.67 -7.64 14.34 -9 14 C-7.824375 13.2265625 -7.824375 13.2265625 -6.625 12.4375 C-3.41681702 9.45847295 -2.99214344 7.19752994 -2 3 C-1.34 2.01 -0.68 1.02 0 0 Z " fill="#75EA7E" transform="translate(178,102)"/>
<path d="M0 0 C-1.48801247 3.84685043 -3.58737382 5.34528502 -7 7.5625 C-10.16888048 9.63056299 -11.87563849 10.81345774 -14 14 C-14.2045085 16.67848373 -14.2045085 16.67848373 -14.0625 19.5625 C-13.90237797 24.80475594 -13.90237797 24.80475594 -15 27 C-15.66 27 -16.32 27 -17 27 C-17.10883596 24.62374823 -17.18766696 22.25256024 -17.25 19.875 C-17.28351563 19.20984375 -17.31703125 18.5446875 -17.3515625 17.859375 C-17.45210496 12.73170959 -16.24808532 9.91907918 -13 6 C-10.5625 4.875 -10.5625 4.875 -8 4 C-6.700625 2.948125 -6.700625 2.948125 -5.375 1.875 C-3 0 -3 0 0 0 Z " fill="#9EF3A5" transform="translate(90,167)"/>
<path d="M0 0 C0.66 0 1.32 0 2 0 C2 0.66 2 1.32 2 2 C3.258125 1.938125 4.51625 1.87625 5.8125 1.8125 C7.95703125 1.70703125 7.95703125 1.70703125 10 2 C10.43441406 2.46664062 10.86882812 2.93328125 11.31640625 3.4140625 C13.89874209 5.84661088 16.68349769 5.94416026 20.125 6.5625 C22.42879977 6.97944536 24.72563157 7.44449569 27 8 C27.33 8.66 27.66 9.32 28 10 C17.2141975 9.43153884 9.26314964 8.6713161 0 3 C0 2.01 0 1.02 0 0 Z " fill="#0F5D12" transform="translate(117,65)"/>
<path d="M0 0 C0.59941406 0.66322266 0.59941406 0.66322266 1.2109375 1.33984375 C3.22812196 3.21168522 5.181658 4.29544184 7.625 5.5625 C12.82906749 8.33195683 17.92292514 11.25647731 23 14.25 C23.7420166 14.68642822 24.4840332 15.12285645 25.24853516 15.57250977 C28.21588699 17.32464415 31.1312758 19.0875172 34 21 C34 21.66 34 22.32 34 23 C29.50389132 21.6732794 25.89017318 19.88352331 21.9375 17.375 C20.80486937 16.66116968 19.67205094 15.94763726 18.5390625 15.234375 C17.9605957 14.86763672 17.38212891 14.50089844 16.78613281 14.12304688 C14.97926588 12.98696324 13.16051098 11.87301947 11.3359375 10.765625 C10.74562744 10.40678223 10.15531738 10.04793945 9.54711914 9.67822266 C7.89216854 8.67337299 6.2371028 7.66871295 4.58203125 6.6640625 C2 5 2 5 0 3 C0 2.01 0 1.02 0 0 Z " fill="#3FB947" transform="translate(75,79)"/>
<path d="M0 0 C7.875 0 7.875 0 11 3 C10.67 3.99 10.34 4.98 10 6 C9.34 6 8.68 6 8 6 C7.67 7.32 7.34 8.64 7 10 C6.67 9.01 6.34 8.02 6 7 C4.68 7 3.36 7 2 7 C1.67 10.63 1.34 14.26 1 18 C2.32 18.33 3.64 18.66 5 19 C3.35 19 1.7 19 0 19 C0 12.73 0 6.46 0 0 Z " fill="#187B1A" transform="translate(108,72)"/>
<path d="M0 0 C1.74216797 0.02707031 1.74216797 0.02707031 3.51953125 0.0546875 C4.39996094 0.07789063 5.28039062 0.10109375 6.1875 0.125 C4.1875 2.125 4.1875 2.125 1.8046875 2.3203125 C0.89976563 2.29710937 -0.00515625 2.27390625 -0.9375 2.25 C-2.30261719 2.22292969 -2.30261719 2.22292969 -3.6953125 2.1953125 C-4.39398438 2.17210937 -5.09265625 2.14890625 -5.8125 2.125 C-5.8125 2.785 -5.8125 3.445 -5.8125 4.125 C-6.410625 4.351875 -7.00875 4.57875 -7.625 4.8125 C-10.60867015 6.60270209 -11.37356393 7.92009694 -12.8125 11.125 C-13.63897649 14.76970998 -14.26235046 18.42928955 -14.8125 22.125 C-15.1425 22.125 -15.4725 22.125 -15.8125 22.125 C-16.58123213 7.92480934 -16.58123213 7.92480934 -11.8125 2.125 C-7.82678853 0.0268878 -4.45801374 -0.09006088 0 0 Z " fill="#9DF6A4" transform="translate(88.8125,53.875)"/>
<path d="M0 0 C0.99 0.33 1.98 0.66 3 1 C1.21118264 2.00508801 -0.58114696 3.00392736 -2.375 4 C-3.37273437 4.556875 -4.37046875 5.11375 -5.3984375 5.6875 C-8 7 -8 7 -10 7 C-10 7.66 -10 8.32 -10 9 C-11.28913487 9.67154933 -12.58140204 10.33708859 -13.875 11 C-14.59429687 11.37125 -15.31359375 11.7425 -16.0546875 12.125 C-18 13 -18 13 -20 13 C-20 13.99 -20 14.98 -20 16 C-27.53146548 20.46309065 -34.40858218 20.43995881 -43 20 C-43.33 19.34 -43.66 18.68 -44 18 C-42.53626953 18.01740234 -42.53626953 18.01740234 -41.04296875 18.03515625 C-39.77066406 18.04417969 -38.49835938 18.05320313 -37.1875 18.0625 C-35.29064453 18.07990234 -35.29064453 18.07990234 -33.35546875 18.09765625 C-30.00394763 18.16159116 -30.00394763 18.16159116 -27 17 C-27 16.34 -27 15.68 -27 15 C-26.03320312 14.49210938 -25.06640625 13.98421875 -24.0703125 13.4609375 C-17.22489054 9.84756219 -10.45295479 6.18464725 -3.85546875 2.12890625 C-2 1 -2 1 0 0 Z " fill="#45BD4D" transform="translate(124,183)"/>
<path d="M0 0 C6.6 0.66 13.2 1.32 20 2 C20 2.66 20 3.32 20 4 C16.37 4 12.74 4 9 4 C9 4.66 9 5.32 9 6 C10.32 6.33 11.64 6.66 13 7 C11.7625 7.020625 10.525 7.04125 9.25 7.0625 C8.55390625 7.07410156 7.8578125 7.08570312 7.140625 7.09765625 C5 7 5 7 3.125 6.5 C0.29991219 5.83527346 -2.35199371 5.90599993 -5.25 5.9375 C-6.32765625 5.94652344 -7.4053125 5.95554687 -8.515625 5.96484375 C-9.74539062 5.98224609 -9.74539062 5.98224609 -11 6 C-10.67 5.34 -10.34 4.68 -10 4 C-7.45058627 3.68758629 -4.99638487 3.48696579 -2.4375 3.375 C-1.72658203 3.33632812 -1.01566406 3.29765625 -0.28320312 3.2578125 C1.47742425 3.16328217 3.23867728 3.08054183 5 3 C2.525 2.01 2.525 2.01 0 1 C0 0.67 0 0.34 0 0 Z " fill="#56E262" transform="translate(131,75)"/>
<path d="M0 0 C6.75 -0.125 6.75 -0.125 9 1 C11.71262116 1.2322646 14.40773126 1.41936235 17.125 1.5625 C18.25615234 1.62727539 18.25615234 1.62727539 19.41015625 1.69335938 C21.27321888 1.7994832 23.13658524 1.90025001 25 2 C25 2.33 25 2.66 25 3 C19.72 3 14.44 3 9 3 C9.33 3.66 9.66 4.32 10 5 C10.04022391 7.3329866 10.04320247 9.66706666 10 12 C9.34 10.68 8.68 9.36 8 8 C7.01 8.495 7.01 8.495 6 9 C5.4225 8.401875 4.845 7.80375 4.25 7.1875 C2.25892393 5.2517316 0.25527003 3.61090717 -2 2 C-1.34 2 -0.68 2 0 2 C0 1.34 0 0.68 0 0 Z " fill="#95F09B" transform="translate(145,119)"/>
<path d="M0 0 C2.31 0.66 4.62 1.32 7 2 C7 3.98 7 5.96 7 8 C9.63904371 9.41377341 12.07120629 10.37240135 15 11 C15.33 12.98 15.66 14.96 16 17 C16.33 15.35 16.66 13.7 17 12 C17.33 12 17.66 12 18 12 C18.33 14.97 18.66 17.94 19 21 C17.68 21 16.36 21 15 21 C14.87625 19.989375 14.7525 18.97875 14.625 17.9375 C13.28892422 13.01876177 9.44384846 11.37903993 5.35546875 8.77734375 C1.97588174 6.22724078 1.14412245 4.00442856 0 0 Z " fill="#0F6214" transform="translate(166,87)"/>
<path d="M0 0 C12.86622638 -0.85902105 12.86622638 -0.85902105 16.6875 1.9375 C19.61572999 5.81542621 20.39885481 9.24266137 21 14 C18.83576213 11.91305634 16.975437 9.96382539 15.28125 7.46875 C12.40332677 4.35428513 10.37312218 3.97089321 6.25 3.1875 C5.07953125 2.95417969 3.9090625 2.72085938 2.703125 2.48046875 C1.81109375 2.32191406 0.9190625 2.16335937 0 2 C0 1.34 0 0.68 0 0 Z " fill="#90F599" transform="translate(140,79)"/>
<path d="M0 0 C0.33 0.66 0.66 1.32 1 2 C0.51917969 2.50015625 0.03835937 3.0003125 -0.45703125 3.515625 C-2.51965726 6.83671397 -2.56173088 9.94817916 -2.6875 13.75 C-2.72166016 14.44738281 -2.75582031 15.14476562 -2.79101562 15.86328125 C-2.87308295 17.57497108 -2.93822919 19.2874576 -3 21 C-2.01 21.33 -1.02 21.66 0 22 C0 22.66 0 23.32 0 24 C0.66 24 1.32 24 2 24 C2.66 25.32 3.32 26.64 4 28 C-0.21228561 26.43989422 -2.34546845 23.5154607 -5 20 C-6.00496852 16.98509443 -6.10335303 14.95818308 -6.0625 11.8125 C-6.05347656 10.91144531 -6.04445313 10.01039063 -6.03515625 9.08203125 C-6.02355469 8.39496094 -6.01195313 7.70789063 -6 7 C-5.34 7 -4.68 7 -4 7 C-3.896875 6.21625 -3.79375 5.4325 -3.6875 4.625 C-3 2 -3 2 0 0 Z " fill="#3AB342" transform="translate(76,173)"/>
<path d="M0 0 C0.33 0.66 0.66 1.32 1 2 C1.99 1.67 2.98 1.34 4 1 C6.1875 1.4375 6.1875 1.4375 8 2 C8 2.66 8 3.32 8 4 C9.32 4 10.64 4 12 4 C12.33 3.34 12.66 2.68 13 2 C16.0625 1.375 16.0625 1.375 19 1 C17.83984375 2.9765625 17.83984375 2.9765625 16 5 C5.66602331 6.95731822 -6.63757242 4.15712053 -17 3 C-17 2.67 -17 2.34 -17 2 C-16.02417969 1.93941406 -15.04835937 1.87882812 -14.04296875 1.81640625 C-12.77066406 1.73261719 -11.49835938 1.64882812 -10.1875 1.5625 C-8.92292969 1.48128906 -7.65835938 1.40007812 -6.35546875 1.31640625 C-3.00818107 1.12815453 -3.00818107 1.12815453 0 0 Z " fill="#117B1A" transform="translate(148,111)"/>
<path d="M0 0 C-1.38123062 4.14369185 -4.19503066 5.21403736 -7.8125 7.25 C-8.75706055 7.81460938 -8.75706055 7.81460938 -9.72070312 8.390625 C-14.40495905 11.06453395 -14.40495905 11.06453395 -17.44921875 10.734375 C-17.96097656 10.49203125 -18.47273438 10.2496875 -19 10 C-18.34 8.02 -17.68 6.04 -17 4 C-16.41992188 3.96261719 -15.83984375 3.92523438 -15.2421875 3.88671875 C-9.91330745 3.43824865 -4.86128323 0 0 0 Z " fill="#9FF3A6" transform="translate(142,171)"/>
<path d="M0 0 C-0.33 0.33 -0.66 0.66 -1 1 C-0.34 1.66 0.32 2.32 1 3 C-0.65 3.66 -2.3 4.32 -4 5 C-4.33 7.97 -4.66 10.94 -5 14 C-5.33 14 -5.66 14 -6 14 C-6.33 10.7 -6.66 7.4 -7 4 C-7.66 4.66 -8.32 5.32 -9 6 C-12.95645087 7.26905028 -16.91325798 8.256956 -21 9 C-16.98785463 4.27982898 -6.26955427 -2.75860388 0 0 Z " fill="#80E688" transform="translate(144,136)"/>
<path d="M0 0 C2.0625 -0.4375 2.0625 -0.4375 5 0 C6.9542134 1.66770946 8.64107914 3.45550718 10.3515625 5.37109375 C12.00846763 7.24830889 12.00846763 7.24830889 15 8 C16.38671875 10.28515625 16.38671875 10.28515625 17.6875 13.0625 C18.34298828 14.44115234 18.34298828 14.44115234 19.01171875 15.84765625 C19.50091797 16.91306641 19.50091797 16.91306641 20 18 C16.68997304 16.56246045 14.56110536 14.77516456 12.0625 12.1875 C11.36898437 11.4759375 10.67546875 10.764375 9.9609375 10.03125 C8.99027344 9.02578125 8.99027344 9.02578125 8 8 C7.071875 7.071875 6.14375 6.14375 5.1875 5.1875 C3.45833333 3.45833333 1.72916667 1.72916667 0 0 Z " fill="#2EB03B" transform="translate(151,78)"/>
<path d="M0 0 C1.37562854 1.28965176 2.70766393 2.62689293 4 4 C4 4.66 4 5.32 4 6 C5.89575251 6.02721176 7.79161979 6.04649136 9.6875 6.0625 C11.27111328 6.07990234 11.27111328 6.07990234 12.88671875 6.09765625 C15.72410262 6.00865425 18.2438919 5.64939838 21 5 C20.67 5.66 20.34 6.32 20 7 C17.27734375 7.6328125 17.27734375 7.6328125 13.9375 8.125 C12.83277344 8.29257813 11.72804688 8.46015625 10.58984375 8.6328125 C9.30787109 8.81457031 9.30787109 8.81457031 8 9 C11.3 9.33 14.6 9.66 18 10 C18 10.33 18 10.66 18 11 C16.08404032 11.08133791 14.16708068 11.13934367 12.25 11.1875 C11.18265625 11.22230469 10.1153125 11.25710937 9.015625 11.29296875 C5.68511459 10.9694088 4.34242876 10.34811426 2 8 C2 7.34 2 6.68 2 6 C1.34 6 0.68 6 0 6 C-0.38218767 4.34385343 -0.71395102 2.67542976 -1 1 C-0.67 0.67 -0.34 0.34 0 0 Z " fill="#7FE286" transform="translate(76,191)"/>
<path d="M0 0 C3.97234434 0.43789623 6.47873867 1.40075269 9.9765625 3.328125 C10.8840625 3.823125 11.7915625 4.318125 12.7265625 4.828125 C14.75565154 6.18085103 16.34581848 7.52572371 17.9765625 9.328125 C14.64933809 8.7735876 11.8751712 8.08799457 8.9765625 6.328125 C8.6465625 5.668125 8.3165625 5.008125 7.9765625 4.328125 C4.64722548 3.21834599 2.10427942 3.19510963 -1.3984375 3.203125 C-2.51992187 3.20054688 -3.64140625 3.19796875 -4.796875 3.1953125 C-7.66608372 3.31341552 -10.23551979 3.67030172 -13.0234375 4.328125 C-9.01990403 -0.49713611 -5.96637959 -0.20323434 0 0 Z " fill="#4BC854" transform="translate(90.0234375,51.671875)"/>
<path d="M0 0 C2 3 2 3 2.875 6.875 C3.7692895 10.72896191 5.2092437 13.12203257 8 16 C10.29629994 17.14814997 12.07698086 17.30769809 14.625 17.5625 C15.44226563 17.64628906 16.25953125 17.73007813 17.1015625 17.81640625 C18.04128906 17.90728516 18.04128906 17.90728516 19 18 C19 18.33 19 18.66 19 19 C9.13252367 20.58985608 9.13252367 20.58985608 5 18.4375 C0.02677556 12.37638272 -0.40499519 7.58990991 0 0 Z " fill="#8CE293" transform="translate(92,169)"/>
<path d="M0 0 C0.84820312 0.16371094 1.69640625 0.32742187 2.5703125 0.49609375 C6.0645531 1.00948445 9.34627574 1.09850739 12.875 1.0625 C14.02742188 1.05347656 15.17984375 1.04445312 16.3671875 1.03515625 C17.67042969 1.01775391 17.67042969 1.01775391 19 1 C18.67 1.66 18.34 2.32 18 3 C14.04 3 10.08 3 6 3 C6 3.66 6 4.32 6 5 C11.28 5 16.56 5 22 5 C21.67 5.66 21.34 6.32 21 7 C18.29020876 6.91249004 15.58349252 6.80555107 12.875 6.6875 C12.11445313 6.66494141 11.35390625 6.64238281 10.5703125 6.61914062 C5.69049587 6.38777001 2.29109862 5.55683672 -2 3 C-1.34 2.67 -0.68 2.34 0 2 C0 1.34 0 0.68 0 0 Z " fill="#87DE8E" transform="translate(159,139)"/>
<path d="M0 0 C5.98993047 -0.3152595 9.63560356 0.31780178 15 3 C15 3.33 15 3.66 15 4 C13.21142578 4.09087891 13.21142578 4.09087891 11.38671875 4.18359375 C9.82030075 4.26801149 8.25389512 4.35265887 6.6875 4.4375 C5.90181641 4.47681641 5.11613281 4.51613281 4.30664062 4.55664062 C3.1706543 4.61948242 3.1706543 4.61948242 2.01171875 4.68359375 C1.31522217 4.72025146 0.61872559 4.75690918 -0.09887695 4.79467773 C-2.2216572 4.95581153 -2.2216572 4.95581153 -5 6 C-4.34 4.68 -3.68 3.36 -3 2 C-2.01 2 -1.02 2 0 2 C0 1.34 0 0.68 0 0 Z " fill="#91F79C" transform="translate(123,75)"/>
<path d="M0 0 C2.97 0.495 2.97 0.495 6 1 C6 1.66 6 2.32 6 3 C6.99 3.33 7.98 3.66 9 4 C10.6875 6.0625 10.6875 6.0625 12 8 C8.69693408 9.10102197 7.28414305 8.95067299 4 8 C3.67 7.34 3.34 6.68 3 6 C-0.02934491 5.34227572 -0.02934491 5.34227572 -3 5 C-2.01 3.35 -1.02 1.7 0 0 Z " fill="#A1F8A8" transform="translate(105,62)"/>
<path d="M0 0 C0 3 0 3 -0.9921875 4.671875 C-2.48776609 8.12677748 -2.20983695 11.5563296 -2.125 15.25 C-2.11146484 16.36761719 -2.11146484 16.36761719 -2.09765625 17.5078125 C-2.07418358 19.33868059 -2.03831525 21.16938238 -2 23 C-5 21 -5 21 -5.6875 19.375 C-6.53518527 12.93259197 -6.517456 8.60187437 -3 3 C-1.3125 1.125 -1.3125 1.125 0 0 Z " fill="#37B13F" transform="translate(76,56)"/>
<path d="M0 0 C0.33 0 0.66 0 1 0 C1.02578125 0.67546875 1.0515625 1.3509375 1.078125 2.046875 C1.31325112 7.72135793 1.31325112 7.72135793 4.0625 12.5 C4.701875 12.995 5.34125 13.49 6 14 C6 14.66 6 15.32 6 16 C9.96 16.33 13.92 16.66 18 17 C18 17.33 18 17.66 18 18 C16.08496326 18.22281874 14.16783494 18.42771076 12.25 18.625 C10.64898437 18.79902344 10.64898437 18.79902344 9.015625 18.9765625 C5.90389526 19.00074693 4.49849401 18.80730066 2 17 C-1.07589924 10.954267 -1.26736608 6.59641139 0 0 Z " fill="#8CE293" transform="translate(116,157)"/>
<path d="M0 0 C0.66 0.33 1.32 0.66 2 1 C0.61211198 2.30020011 -0.78569258 3.5898193 -2.1875 4.875 C-2.96480469 5.59429687 -3.74210937 6.31359375 -4.54296875 7.0546875 C-7.01930165 9.01528175 -9.05051646 9.93617699 -12 11 C-14.61418732 12.32864993 -17.20436495 13.6964761 -19.79296875 15.07421875 C-20.52128906 15.37972656 -21.24960938 15.68523437 -22 16 C-22.66 15.67 -23.32 15.34 -24 15 C-23.02160156 14.41992188 -22.04320312 13.83984375 -21.03515625 13.2421875 C-13.90306773 8.99787152 -6.83135825 4.72085733 0 0 Z " fill="#55D55E" transform="translate(182,148)"/>
<path d="M0 0 C1.32 0.33 2.64 0.66 4 1 C4.66 3.31 5.32 5.62 6 8 C6.66 8 7.32 8 8 8 C9.7143618 9.95927063 11.38405168 11.95880212 13 14 C9.625 14.125 9.625 14.125 6 14 C4 12 4 12 3.5625 8.5625 C2.98877334 4.92889779 2.68845479 4.22089744 0 2 C0 1.34 0 0.68 0 0 Z " fill="#126A14" transform="translate(108,102)"/>
<path d="M0 0 C2.4375 1 2.4375 1 4 2 C2.52307692 8.64615385 2.52307692 8.64615385 -0.125 10.4375 C-0.74375 10.623125 -1.3625 10.80875 -2 11 C-2.26218749 7.85375007 -2.24754367 6.38162983 -0.5 3.6875 C-0.005 3.130625 0.49 2.57375 1 2 C-1.97 2 -4.94 2 -8 2 C-8.33 2.99 -8.66 3.98 -9 5 C-9 3.68 -9 2.36 -9 1 C-5.97562661 -0.5121867 -3.33758466 -0.17263369 0 0 Z " fill="#6CEE74" transform="translate(147,87)"/>
<path d="M0 0 C0 0.33 0 0.66 0 1 C-1.5778125 1.0928125 -1.5778125 1.0928125 -3.1875 1.1875 C-7.85425264 2.18205384 -9.23434828 3.1280876 -12 7 C-12.96928051 10.30161175 -13.5564607 13.59070534 -14 17 C-14.33 17 -14.66 17 -15 17 C-17.12423014 7.82266195 -17.12423014 7.82266195 -14.56640625 3.67578125 C-9.66895134 -1.03073975 -6.48047795 -1.73584231 0 0 Z " fill="#91E697" transform="translate(108,67)"/>
<path d="M0 0 C2 3.75 2 3.75 2 6 C2.556875 6.04125 3.11375 6.0825 3.6875 6.125 C7.24030274 7.46930374 8.70958953 10.00974189 11 13 C8.33333333 11.66666667 5.66666667 10.33333333 3 9 C3 9.66 3 10.32 3 11 C2.01 11 1.02 11 0 11 C-0.99 8.36 -1.98 5.72 -3 3 C-2.34 3 -1.68 3 -1 3 C-0.67 2.01 -0.34 1.02 0 0 Z " fill="#6EE979" transform="translate(114,99)"/>
<path d="M0 0 C4.02871174 1.34290391 4.67538369 3.51307554 7 7 C9.6091387 9.32277416 9.6091387 9.32277416 12 11 C10.3125 11.6875 10.3125 11.6875 8 12 C4.91787999 10.49652682 1.99064988 8.82881825 0 6 C-0.1875 2.8125 -0.1875 2.8125 0 0 Z " fill="#8FED96" transform="translate(74,73)"/>
<path d="M0 0 C5.66442374 0.36504064 10.00703705 1.0554321 15 4 C15 4.33 15 4.66 15 5 C13.1128125 5.12375 13.1128125 5.12375 11.1875 5.25 C7.66188788 5.66557143 7.66188788 5.66557143 5 8.0625 C4.67 8.701875 4.34 9.34125 4 10 C3.83723958 7.98177083 3.67447917 5.96354167 3.51171875 3.9453125 C3.12606964 1.60480784 3.12606964 1.60480784 0 0 Z " fill="#16891A" transform="translate(132,81)"/>
<path d="M0 0 C0 0.66 0 1.32 0 2 C-3.79163027 4.52775351 -6.80874031 4.22443035 -11.1875 4.125 C-11.93708984 4.11597656 -12.68667969 4.10695313 -13.45898438 4.09765625 C-15.30612654 4.07412578 -17.15310412 4.03825561 -19 4 C-18.67 3.01 -18.34 2.02 -18 1 C-15.93769732 0.8309093 -13.8751477 0.66482867 -11.8125 0.5 C-10.08966797 0.36078125 -10.08966797 0.36078125 -8.33203125 0.21875 C-5.53927574 0.0354038 -2.79680188 -0.04213637 0 0 Z " fill="#94F69F" transform="translate(173,117)"/>
<path d="M0 0 C2.97 0 5.94 0 9 0 C8.34 1.32 7.68 2.64 7 4 C4.4375 4.625 4.4375 4.625 2 5 C1.67 5.66 1.34 6.32 1 7 C0 6 0 6 -0.0625 2.9375 C-0.041875 1.968125 -0.02125 0.99875 0 0 Z " fill="#8FF795" transform="translate(139,89)"/>
<path d="M0 0 C7.92 0 15.84 0 24 0 C24.33 1.65 24.66 3.3 25 5 C24.0925 4.690625 23.185 4.38125 22.25 4.0625 C17.19683393 2.4105034 12.56029143 1.74366992 7.25 1.4375 C6.55261719 1.39431641 5.85523438 1.35113281 5.13671875 1.30664062 C3.42468078 1.20110404 1.71236439 1.1001009 0 1 C0 0.67 0 0.34 0 0 Z " fill="#062A08" transform="translate(133,67)"/>
<path d="M0 0 C2.475 0.495 2.475 0.495 5 1 C5 1.66 5 2.32 5 3 C5.763125 3.268125 6.52625 3.53625 7.3125 3.8125 C9.94206561 4.97440108 11.13700992 5.88296582 13 8 C13.556875 8.556875 14.11375 9.11375 14.6875 9.6875 C15.120625 10.120625 15.55375 10.55375 16 11 C10.71824432 10.24546347 6.43856408 8.16247231 3 4 C3 3.34 3 2.68 3 2 C2.01 1.67 1.02 1.34 0 1 C0 0.67 0 0.34 0 0 Z " fill="#3DCF49" transform="translate(108,61)"/>
<path d="M0 0 C-0.77085938 0.48210937 -1.54171875 0.96421875 -2.3359375 1.4609375 C-3.33882812 2.09257812 -4.34171875 2.72421875 -5.375 3.375 C-6.37273437 4.00148437 -7.37046875 4.62796875 -8.3984375 5.2734375 C-11.0248019 6.89269712 -11.0248019 6.89269712 -13 9 C-15.125 8.625 -15.125 8.625 -17 8 C-4.69934167 -1.43152215 -4.69934167 -1.43152215 0 0 Z " fill="#4CC454" transform="translate(94,164)"/>
<path d="M0 0 C0.66 0.433125 1.32 0.86625 2 1.3125 C-1.25941295 3.48544197 -4.31061191 4.9948614 -8 6.3125 C-8.99 5.6525 -9.98 4.9925 -11 4.3125 C-3.9452954 -0.9041302 -3.9452954 -0.9041302 0 0 Z " fill="#8CE693" transform="translate(125,180.6875)"/>
<path d="M0 0 C1.4540625 0.0309375 1.4540625 0.0309375 2.9375 0.0625 C2.9375 0.3925 2.9375 0.7225 2.9375 1.0625 C8.5475 1.3925 14.1575 1.7225 19.9375 2.0625 C19.9375 2.3925 19.9375 2.7225 19.9375 3.0625 C16.50007082 3.12052698 13.06276747 3.15610486 9.625 3.1875 C8.64853516 3.20425781 7.67207031 3.22101563 6.66601562 3.23828125 C5.72822266 3.24472656 4.79042969 3.25117187 3.82421875 3.2578125 C2.96014404 3.26828613 2.09606934 3.27875977 1.20581055 3.28955078 C-1.0625 3.0625 -1.0625 3.0625 -4.0625 1.0625 C-3.0625 0.0625 -3.0625 0.0625 0 0 Z " fill="#15781B" transform="translate(163.0625,122.9375)"/>
<path d="M0 0 C7.26 0.33 14.52 0.66 22 1 C22 1.33 22 1.66 22 2 C16.72 2 11.44 2 6 2 C6 2.66 6 3.32 6 4 C1.125 2.25 1.125 2.25 0 0 Z " fill="#4BE757" transform="translate(148,120)"/>
<path d="M0 0 C2.64 0.33 5.28 0.66 8 1 C8.66 2.65 9.32 4.3 10 6 C5.96825194 5.72510809 4.43105369 5.46508424 1.625 2.4375 C0.820625 1.2309375 0.820625 1.2309375 0 0 Z " fill="#15821F" transform="translate(121,107)"/>
<path d="M0 0 C0.66 0.33 1.32 0.66 2 1 C2.4140625 3.06640625 2.4140625 3.06640625 2.625 5.5625 C2.69976562 6.38878906 2.77453125 7.21507813 2.8515625 8.06640625 C2.90054688 8.70449219 2.94953125 9.34257813 3 10 C1.35 9.67 -0.3 9.34 -2 9 C-2.33 7.68 -2.66 6.36 -3 5 C-2.01 5 -1.02 5 0 5 C0 3.35 0 1.7 0 0 Z " fill="#A7F7AC" transform="translate(111,93)"/>
<path d="M0 0 C1.26977059 3.80931176 0.52074507 5.81618993 -0.4375 9.6875 C-0.86869141 11.45673828 -0.86869141 11.45673828 -1.30859375 13.26171875 C-1.65083984 14.61716797 -1.65083984 14.61716797 -2 16 C-2.33 16 -2.66 16 -3 16 C-3.0810206 13.89646505 -3.13919907 11.79204048 -3.1875 9.6875 C-3.22230469 8.51574219 -3.25710937 7.34398438 -3.29296875 6.13671875 C-3 3 -3 3 -1.48828125 1.08203125 C-0.99714844 0.72496094 -0.50601563 0.36789063 0 0 Z " fill="#9FF5A6" transform="translate(76,60)"/>
<path d="M0 0 C0.33 0.66 0.66 1.32 1 2 C0.27876953 2.78117188 0.27876953 2.78117188 -0.45703125 3.578125 C-2.45173865 6.70905813 -2.50318411 9.06368221 -2.6875 12.75 C-2.75324219 13.92046875 -2.81898437 15.0909375 -2.88671875 16.296875 C-2.92410156 17.18890625 -2.96148437 18.0809375 -3 19 C-3.33 19 -3.66 19 -4 19 C-4.10792837 16.39472895 -4.18724878 13.79391689 -4.25 11.1875 C-4.30027344 10.08051758 -4.30027344 10.08051758 -4.3515625 8.95117188 C-4.390625 6.79296875 -4.390625 6.79296875 -4 3 C-1.984375 0.98828125 -1.984375 0.98828125 0 0 Z " fill="#5BD063" transform="translate(76,173)"/>
<path d="M0 0 C0.928125 0.5775 1.85625 1.155 2.8125 1.75 C7.60967899 4.51380682 12.77508159 6.22371671 18 8 C13.16541624 9.61152792 9.51273729 7.97532629 5 6 C1.9375 3.9375 1.9375 3.9375 0 2 C0 1.34 0 0.68 0 0 Z " fill="#45D74B" transform="translate(116,110)"/>
<path d="M0 0 C2.31 0.66 4.62 1.32 7 2 C7 3.98 7 5.96 7 8 C3.70851757 6.86500606 3.0040131 6.00716624 1.25 2.875 C0.8375 1.92625 0.425 0.9775 0 0 Z " fill="#106013" transform="translate(166,87)"/>
<path d="M0 0 C0.33 0.66 0.66 1.32 1 2 C1.99 2.33 2.98 2.66 4 3 C3.01 3.495 3.01 3.495 2 4 C2.33 7.63 2.66 11.26 3 15 C2.34 15 1.68 15 1 15 C-0.32286246 10.03926578 -0.08893197 5.08888488 0 0 Z " fill="#09400B" transform="translate(108,104)"/>
<path d="M0 0 C3.34249629 0.59687434 5.46436342 1.73603877 8 4 C8 4.66 8 5.32 8 6 C3.50347222 6.36458333 3.50347222 6.36458333 1.1875 4.6875 C0 3 0 3 0 0 Z " fill="#A9F7B2" transform="translate(117,108)"/>
<path d="M0 0 C3.15111212 2.52952288 3.58798017 4.76756266 4.1875 8.6875 C4.42533203 10.17830078 4.42533203 10.17830078 4.66796875 11.69921875 C4.77753906 12.45847656 4.88710937 13.21773437 5 14 C4.34 14 3.68 14 3 14 C2.49713066 12.0424015 1.9977901 10.08389623 1.5 8.125 C1.2215625 7.03445312 0.943125 5.94390625 0.65625 4.8203125 C0 2 0 2 0 0 Z " fill="#26A52C" transform="translate(113,91)"/>
<path d="M0 0 C5.28089024 -0.30466674 6.577168 -0.317124 11 3 C7.37 3 3.74 3 0 3 C0 2.01 0 1.02 0 0 Z " fill="#117115" transform="translate(134,122)"/>
<path d="M0 0 C3.82946843 1.45255699 5.12050295 3.42895561 7 7 C6.01 7.33 5.02 7.66 4 8 C0 3.375 0 3.375 0 0 Z " fill="#A9F7B4" transform="translate(159,87)"/>
<path d="M0 0 C0 3 0 3 -0.9609375 4.796875 C-2.30303037 7.64251553 -2.42086654 10.11995366 -2.625 13.25 C-2.69976562 14.32765625 -2.77453125 15.4053125 -2.8515625 16.515625 C-2.90054688 17.33546875 -2.94953125 18.1553125 -3 19 C-3.33 19 -3.66 19 -4 19 C-4.10826289 16.5821288 -4.18739789 14.16912444 -4.25 11.75 C-4.28351563 11.06808594 -4.31703125 10.38617188 -4.3515625 9.68359375 C-4.4215705 6.07818187 -4.29151719 4.35931188 -1.984375 1.515625 C-1.32953125 1.01546875 -0.6746875 0.5153125 0 0 Z " fill="#58D461" transform="translate(76,56)"/>
<path d="M0 0 C0.66 0.33 1.32 0.66 2 1 C1 4 1 4 -1.3125 5.3125 C-4.51109376 6.13074492 -5.23439189 5.57445067 -8 4 C-6.71349294 3.30289269 -5.42059335 2.61757124 -4.125 1.9375 C-3.40570313 1.55464844 -2.68640625 1.17179688 -1.9453125 0.77734375 C-1.30335938 0.52082031 -0.66140625 0.26429688 0 0 Z " fill="#90EE98" transform="translate(130,142)"/>
<path d="M0 0 C0.33 1.98 0.66 3.96 1 6 C-0.32 4.68 -1.64 3.36 -3 2 C-3 3.32 -3 4.64 -3 6 C-3.66 6 -4.32 6 -5 6 C-5 5.34 -5 4.68 -5 4 C-6.32 3.67 -7.64 3.34 -9 3 C-7.68 3 -6.36 3 -5 3 C-5 2.34 -5 1.68 -5 1 C-3 0 -3 0 0 0 Z " fill="#55DF5F" transform="translate(113,91)"/>
<path d="M0 0 C0 0.66 0 1.32 0 2 C-0.99 2 -1.98 2 -3 2 C-3 2.66 -3 3.32 -3 4 C-5.25 5.6875 -5.25 5.6875 -8 7 C-10.171875 6.58203125 -10.171875 6.58203125 -12 6 C-10.37829621 4.99466333 -8.75252763 3.99588093 -7.125 3 C-5.76761719 2.1646875 -5.76761719 2.1646875 -4.3828125 1.3125 C-2 0 -2 0 0 0 Z " fill="#3DAF45" transform="translate(135,138)"/>
<path d="M0 0 C2.86724686 0.57344937 3.8614515 0.8614515 6 3 C6.26991906 5.68839385 6.08737357 8.29141936 6 11 C5.67 11 5.34 11 5 11 C4.731875 10.113125 4.46375 9.22625 4.1875 8.3125 C3.08289181 5.23122452 1.77150856 2.73778595 0 0 Z " fill="#AEF8B6" transform="translate(172,99)"/>
<path d="M0 0 C1.9375 0.6875 1.9375 0.6875 4 2 C4.75 4.625 4.75 4.625 5 7 C3.35 7 1.7 7 0 7 C0 4.69 0 2.38 0 0 Z " fill="#B1F9BB" transform="translate(150,90)"/>
<path d="M0 0 C2.97 0.495 2.97 0.495 6 1 C5.443125 1.268125 4.88625 1.53625 4.3125 1.8125 C1.91066602 3.00699665 1.91066602 3.00699665 -0.625 4.625 C-3 6 -3 6 -5 6 C-4.34 4.68 -3.68 3.36 -3 2 C-2.01 2 -1.02 2 0 2 C0 1.34 0 0.68 0 0 Z " fill="#A7F9B1" transform="translate(123,75)"/>
<path d="M0 0 C0.33 0.66 0.66 1.32 1 2 C-0.32 1.67 -1.64 1.34 -3 1 C-2.67 1.99 -2.34 2.98 -2 4 C-6.29 3.34 -10.58 2.68 -15 2 C-15 1.67 -15 1.34 -15 1 C-13.43784452 0.83013455 -11.8752548 0.66426036 -10.3125 0.5 C-9.44238281 0.4071875 -8.57226562 0.314375 -7.67578125 0.21875 C-5.10276661 0.00840136 -2.58015636 -0.03719144 0 0 Z " fill="#7DE084" transform="translate(98,55)"/>
<path d="M0 0 C1.61648437 0.04060547 1.61648437 0.04060547 3.265625 0.08203125 C4.08546875 0.11683594 4.9053125 0.15164062 5.75 0.1875 C5.75 0.5175 5.75 0.8475 5.75 1.1875 C4.70199219 1.26097656 4.70199219 1.26097656 3.6328125 1.3359375 C2.72273438 1.41070312 1.81265625 1.48546875 0.875 1.5625 C-0.02992187 1.63210937 -0.93484375 1.70171875 -1.8671875 1.7734375 C-4.42941903 1.98318132 -4.42941903 1.98318132 -6.25 4.1875 C-8.375 3.8125 -8.375 3.8125 -10.25 3.1875 C-6.86416198 0.05642164 -4.53890538 -0.14800778 0 0 Z " fill="#39B341" transform="translate(87.25,51.8125)"/>
<path d="M0 0 C0.66 0.33 1.32 0.66 2 1 C-0.97 3.64 -3.94 6.28 -7 9 C-7.66 8.67 -8.32 8.34 -9 8 C-6.14723863 5.06799526 -3.34920216 2.35684596 0 0 Z " fill="#46C24F" transform="translate(182,148)"/>
<path d="M0 0 C0.66 0 1.32 0 2 0 C2 1.65 2 3.3 2 5 C0.02 5.99 0.02 5.99 -2 7 C-2.125 4.625 -2.125 4.625 -2 2 C-1.34 1.34 -0.68 0.68 0 0 Z " fill="#44E153" transform="translate(147,91)"/>
<path d="M0 0 C0.99 0.33 1.98 0.66 3 1 C2 3 1 5 0 7 C0.66 7 1.32 7 2 7 C2 7.66 2 8.32 2 9 C0.68 8.67 -0.64 8.34 -2 8 C-2 6.68 -2 5.36 -2 4 C-1.34 3.67 -0.68 3.34 0 3 C0 2.01 0 1.02 0 0 Z " fill="#47DC52" transform="translate(118,74)"/>
<path d="M0 0 C2.97 0.495 2.97 0.495 6 1 C4.35 2.65 2.7 4.3 1 6 C0.01 5.67 -0.98 5.34 -2 5 C-1.34 3.35 -0.68 1.7 0 0 Z " fill="#8CEE94" transform="translate(77,56)"/>
<path d="M0 0 C0.33 0 0.66 0 1 0 C1.04898438 0.68707031 1.09796875 1.37414062 1.1484375 2.08203125 C1.22320312 2.98308594 1.29796875 3.88414062 1.375 4.8125 C1.44460937 5.70582031 1.51421875 6.59914062 1.5859375 7.51953125 C1.86645036 10.24398499 1.86645036 10.24398499 4 13 C3.01 13.33 2.02 13.66 1 14 C-1.61895048 9.22426677 -0.83119431 5.15565119 0 0 Z " fill="#92E799" transform="translate(116,157)"/>
<path d="M0 0 C1.98 0.99 1.98 0.99 4 2 C4 2.66 4 3.32 4 4 C3.34 4 2.68 4 2 4 C2 7.3 2 10.6 2 14 C1.67 14 1.34 14 1 14 C0.67 9.38 0.34 4.76 0 0 Z " fill="#94EA9B" transform="translate(187,118)"/>
<path d="M0 0 C2.97 0 5.94 0 9 0 C9 0.66 9 1.32 9 2 C6.69 2 4.38 2 2 2 C2 2.66 2 3.32 2 4 C1.34 4 0.68 4 0 4 C0 2.68 0 1.36 0 0 Z " fill="#A3F8A8" transform="translate(139,89)"/>
<path d="M0 0 C1.32 0.66 2.64 1.32 4 2 C4 2.99 4 3.98 4 5 C0.37 4.34 -3.26 3.68 -7 3 C-7 2.67 -7 2.34 -7 2 C-3.535 1.505 -3.535 1.505 0 1 C0 0.67 0 0.34 0 0 Z " fill="#92F49B" transform="translate(151,79)"/>
<path d="M0 0 C0.8971875 0.309375 0.8971875 0.309375 1.8125 0.625 C0.52725739 1.48880259 -0.76592419 2.34080369 -2.0625 3.1875 C-2.78179687 3.66316406 -3.50109375 4.13882813 -4.2421875 4.62890625 C-4.88414062 4.95761719 -5.52609375 5.28632813 -6.1875 5.625 C-6.8475 5.295 -7.5075 4.965 -8.1875 4.625 C-3.2421875 -0.55580357 -3.2421875 -0.55580357 0 0 Z " fill="#48C851" transform="translate(156.1875,165.375)"/>
<path d="M0 0 C1.875 0.125 1.875 0.125 4 1 C5.25 4.0625 5.25 4.0625 6 7 C5.34 7 4.68 7 4 7 C0 2.52941176 0 2.52941176 0 0 Z " fill="#239927" transform="translate(108,102)"/>
<path d="M0 0 C4.55384615 -0.36923077 4.55384615 -0.36923077 6.8125 1.5 C7.204375 1.995 7.59625 2.49 8 3 C7.67 3.99 7.34 4.98 7 6 C5.83054208 5.19152271 4.66449539 4.37810888 3.5 3.5625 C2.8503125 3.11003906 2.200625 2.65757813 1.53125 2.19140625 C1.0259375 1.79824219 0.520625 1.40507813 0 1 C0 0.67 0 0.34 0 0 Z " fill="#2EB939" transform="translate(151,78)"/>
<path d="M0 0 C4.31392226 0.4793247 6.16569547 1.7457985 9 5 C7.35 5 5.7 5 4 5 C3.67 4.34 3.34 3.68 3 3 C2.01 2.67 1.02 2.34 0 2 C0 1.34 0 0.68 0 0 Z " fill="#0D4C10" transform="translate(150,72)"/>
<path d="M0 0 C0.33 0.66 0.66 1.32 1 2 C4.3 2 7.6 2 11 2 C10.01 2.495 10.01 2.495 9 3 C9.33 3.99 9.66 4.98 10 6 C6.7 5.01 3.4 4.02 0 3 C0 2.01 0 1.02 0 0 Z " fill="#6DE876" transform="translate(108,68)"/>
<path d="M0 0 C2.97 0.495 2.97 0.495 6 1 C6 1.66 6 2.32 6 3 C3.125 3.625 3.125 3.625 0 4 C-0.66 3.34 -1.32 2.68 -2 2 C-1.34 2 -0.68 2 0 2 C0 1.34 0 0.68 0 0 Z " fill="#80F089" transform="translate(125,112)"/>
<path d="M0 0 C2.31 0.33 4.62 0.66 7 1 C7 1.66 7 2.32 7 3 C4.69 3 2.38 3 0 3 C0 2.01 0 1.02 0 0 Z " fill="#25A930" transform="translate(132,119)"/>
<path d="M0 0 C2.475 0.99 2.475 0.99 5 2 C3.625 4 3.625 4 2 6 C1.34 6 0.68 6 0 6 C0 4.02 0 2.04 0 0 Z " fill="#188A1C" transform="translate(158,94)"/>
<path d="M0 0 C2.475 0.495 2.475 0.495 5 1 C5 1.66 5 2.32 5 3 C5.66 3 6.32 3 7 3 C6.67 4.32 6.34 5.64 6 7 C4.5 5.625 4.5 5.625 3 4 C3 3.34 3 2.68 3 2 C2.01 1.67 1.02 1.34 0 1 C0 0.67 0 0.34 0 0 Z " fill="#42B94B" transform="translate(108,61)"/>
<path d="M0 0 C0.66 0.33 1.32 0.66 2 1 C1.01 1.66 0.02 2.32 -1 3 C-0.67 3.66 -0.34 4.32 0 5 C-1.32 5.33 -2.64 5.66 -4 6 C-4.33 5.01 -4.66 4.02 -5 3 C-4.34 3 -3.68 3 -3 3 C-3 2.34 -3 1.68 -3 1 C-2.01 0.67 -1.02 0.34 0 0 Z " fill="#8FED96" transform="translate(111,153)"/>
<path d="M0 0 C0.66 0.33 1.32 0.66 2 1 C0.02 3.97 0.02 3.97 -2 7 C-2.33 6.01 -2.66 5.02 -3 4 C-3.66 3.67 -4.32 3.34 -5 3 C-2.625 1.4375 -2.625 1.4375 0 0 Z " fill="#92E998" transform="translate(174,149)"/>
<path d="M0 0 C3.77545388 1.09068668 6.47043472 1.9083091 9 5 C8.67 5.66 8.34 6.32 8 7 C6.66382648 6.02471263 5.3311249 5.04466681 4 4.0625 C3.2575 3.51722656 2.515 2.97195312 1.75 2.41015625 C1.1725 1.94480469 0.595 1.47945313 0 1 C0 0.67 0 0.34 0 0 Z " fill="#1A9423" transform="translate(169,93)"/>
<path d="M0 0 C0 0.33 0 0.66 0 1 C-1.670625 1.2165625 -1.670625 1.2165625 -3.375 1.4375 C-6.82142047 1.78372035 -6.82142047 1.78372035 -9 3 C-9.66 2.34 -10.32 1.68 -11 1 C-6.8204355 -1.78637633 -4.85331323 -0.79562512 0 0 Z " fill="#86DD8D" transform="translate(108,67)"/>
<path d="M0 0 C1.98 0 3.96 0 6 0 C6 0.33 6 0.66 6 1 C4.02 1 2.04 1 0 1 C0 0.67 0 0.34 0 0 Z " fill="#031403" transform="translate(203,254)"/>
<path d="M0 0 C1.98 0 3.96 0 6 0 C6 0.33 6 0.66 6 1 C4.02 1 2.04 1 0 1 C0 0.67 0 0.34 0 0 Z " fill="#031403" transform="translate(45,254)"/>
<path d="M0 0 C1.98 0 3.96 0 6 0 C6 0.33 6 0.66 6 1 C4.02 1 2.04 1 0 1 C0 0.67 0 0.34 0 0 Z " fill="#041504" transform="translate(43,0)"/>
<path d="M0 0 C1.65 0 3.3 0 5 0 C5 0.33 5 0.66 5 1 C3.35 1 1.7 1 0 1 C0 0.67 0 0.34 0 0 Z " fill="#031503" transform="translate(206,0)"/>
<path d="M0 0 C1 4 1 4 1 4 Z " fill="#031403" transform="translate(252,209)"/>
<path d="M0 0 C1 4 1 4 1 4 Z " fill="#041504" transform="translate(1,41)"/>
<path d="M0 0 C3 1 3 1 3 1 Z " fill="#031403" transform="translate(211,253)"/>
<path d="M0 0 C3 1 3 1 3 1 Z " fill="#041304" transform="translate(40,253)"/>
<path d="M0 0 C3 1 3 1 3 1 Z " fill="#041504" transform="translate(214,252)"/>
<path d="M0 0 C3 1 3 1 3 1 Z " fill="#041504" transform="translate(37,252)"/>
<path d="M0 0 C3 1 3 1 3 1 Z " fill="#041504" transform="translate(34,251)"/>
<path d="" fill="#041404" transform="translate(0,0)"/>
<path d="" fill="#031403" transform="translate(0,0)"/>
<path d="" fill="#031403" transform="translate(0,0)"/>
<path d="" fill="#031403" transform="translate(0,0)"/>
<path d="" fill="#041404" transform="translate(0,0)"/>
<path d="M0 0 C3 1 3 1 3 1 Z " fill="#031403" transform="translate(215,2)"/>
<path d="M0 0 C3 1 3 1 3 1 Z " fill="#031403" transform="translate(39,1)"/>
<path d="M0 0 C2 1 2 1 2 1 Z " fill="#031303" transform="translate(220,250)"/>
<path d="M0 0 C2 1 2 1 2 1 Z " fill="#051605" transform="translate(32,250)"/>
<path d="M0 0 C2 1 2 1 2 1 Z " fill="#031503" transform="translate(222,249)"/>
<path d="M0 0 C2 1 2 1 2 1 Z " fill="#041404" transform="translate(30,249)"/>
<path d="M0 0 C2 1 2 1 2 1 Z " fill="#031403" transform="translate(224,248)"/>
<path d="M0 0 C2 1 2 1 2 1 Z " fill="#041404" transform="translate(28,248)"/>
<path d="M0 0 C2 1 2 1 2 1 Z " fill="#031503" transform="translate(230,244)"/>
<path d="M0 0 C2 1 2 1 2 1 Z " fill="#031603" transform="translate(22,244)"/>
<path d="M0 0 C2 1 2 1 2 1 Z " fill="#041404" transform="translate(17,240)"/>
<path d="" fill="#031503" transform="translate(0,0)"/>
<path d="" fill="#021402" transform="translate(0,0)"/>
<path d="" fill="#031403" transform="translate(0,0)"/>
<path d="" fill="#031403" transform="translate(0,0)"/>
<path d="" fill="#031503" transform="translate(0,0)"/>
<path d="" fill="#021402" transform="translate(0,0)"/>
<path d="" fill="#041404" transform="translate(0,0)"/>
<path d="" fill="#031403" transform="translate(0,0)"/>
<path d="" fill="#041604" transform="translate(0,0)"/>
<path d="" fill="#031403" transform="translate(0,0)"/>
<path d="" fill="#031403" transform="translate(0,0)"/>
<path d="" fill="#031303" transform="translate(0,0)"/>
<path d="" fill="#021402" transform="translate(0,0)"/>
<path d="" fill="#031403" transform="translate(0,0)"/>
<path d="" fill="#031403" transform="translate(0,0)"/>
<path d="" fill="#031403" transform="translate(0,0)"/>
<path d="" fill="#031503" transform="translate(0,0)"/>
<path d="" fill="#021302" transform="translate(0,0)"/>
<path d="" fill="#041404" transform="translate(0,0)"/>
<path d="" fill="#031403" transform="translate(0,0)"/>
<path d="" fill="#031503" transform="translate(0,0)"/>
<path d="" fill="#021302" transform="translate(0,0)"/>
<path d="" fill="#031503" transform="translate(0,0)"/>
<path d="" fill="#031503" transform="translate(0,0)"/>
<path d="M0 0 C2 1 2 1 2 1 Z " fill="#041604" transform="translate(20,11)"/>
<path d="M0 0 C2 1 2 1 2 1 Z " fill="#031603" transform="translate(231,10)"/>
<path d="M0 0 C2 1 2 1 2 1 Z " fill="#031503" transform="translate(228,8)"/>
<path d="M0 0 C2 1 2 1 2 1 Z " fill="#031403" transform="translate(24,8)"/>
<path d="M0 0 C2 1 2 1 2 1 Z " fill="#031503" transform="translate(225,6)"/>
<path d="M0 0 C2 1 2 1 2 1 Z " fill="#031403" transform="translate(27,6)"/>
<path d="M0 0 C2 1 2 1 2 1 Z " fill="#021402" transform="translate(223,5)"/>
<path d="M0 0 C2 1 2 1 2 1 Z " fill="#021402" transform="translate(29,5)"/>
<path d="M0 0 C2 1 2 1 2 1 Z " fill="#021302" transform="translate(221,4)"/>
<path d="M0 0 C2 1 2 1 2 1 Z " fill="#031403" transform="translate(218,3)"/>
<path d="M0 0 C2 1 2 1 2 1 Z " fill="#051405" transform="translate(34,3)"/>
<path d="M0 0 C2 1 2 1 2 1 Z " fill="#031303" transform="translate(36,2)"/>
<path d="M0 0 C2 1 2 1 2 1 Z " fill="#031503" transform="translate(212,1)"/>
<path d="" fill="#031403" transform="translate(0,0)"/>
<path d="" fill="#031403" transform="translate(0,0)"/>
<path d="" fill="#041504" transform="translate(0,0)"/>
<path d="" fill="#031403" transform="translate(0,0)"/>
<path d="" fill="#031303" transform="translate(0,0)"/>
<path d="" fill="#031403" transform="translate(0,0)"/>
<path d="" fill="#031503" transform="translate(0,0)"/>
<path d="" fill="#031403" transform="translate(0,0)"/>
<path d="" fill="#031503" transform="translate(0,0)"/>
<path d="" fill="#031403" transform="translate(0,0)"/>
<path d="" fill="#031503" transform="translate(0,0)"/>
<path d="" fill="#051505" transform="translate(0,0)"/>
<path d="" fill="#041504" transform="translate(0,0)"/>
<path d="" fill="#041604" transform="translate(0,0)"/>
<path d="" fill="#031303" transform="translate(0,0)"/>
<path d="" fill="#031603" transform="translate(0,0)"/>
<path d="" fill="#031403" transform="translate(0,0)"/>
<path d="" fill="#051505" transform="translate(0,0)"/>
<path d="" fill="#031503" transform="translate(0,0)"/>
<path d="" fill="#031403" transform="translate(0,0)"/>
<path d="" fill="#051705" transform="translate(0,0)"/>
<path d="" fill="#031403" transform="translate(0,0)"/>
<path d="" fill="#041604" transform="translate(0,0)"/>
<path d="" fill="#031403" transform="translate(0,0)"/>
<path d="" fill="#031503" transform="translate(0,0)"/>
<path d="" fill="#021402" transform="translate(0,0)"/>
<path d="" fill="#031503" transform="translate(0,0)"/>
<path d="" fill="#031303" transform="translate(0,0)"/>
<path d="" fill="#031403" transform="translate(0,0)"/>
<path d="" fill="#031403" transform="translate(0,0)"/>
<path d="" fill="#031403" transform="translate(0,0)"/>
<path d="" fill="#031403" transform="translate(0,0)"/>
<path d="" fill="#021402" transform="translate(0,0)"/>
<path d="" fill="#031403" transform="translate(0,0)"/>
<path d="" fill="#031403" transform="translate(0,0)"/>
<path d="" fill="#031403" transform="translate(0,0)"/>
<path d="" fill="#021402" transform="translate(0,0)"/>
<path d="" fill="#031503" transform="translate(0,0)"/>
<path d="" fill="#021402" transform="translate(0,0)"/>
<path d="" fill="#031403" transform="translate(0,0)"/>
<path d="" fill="#031503" transform="translate(0,0)"/>
<path d="" fill="#031503" transform="translate(0,0)"/>
<path d="" fill="#041404" transform="translate(0,0)"/>
<path d="" fill="#041604" transform="translate(0,0)"/>
<path d="" fill="#031403" transform="translate(0,0)"/>
<path d="" fill="#041504" transform="translate(0,0)"/>
<path d="" fill="#031303" transform="translate(0,0)"/>
<path d="" fill="#041404" transform="translate(0,0)"/>
<path d="" fill="#031303" transform="translate(0,0)"/>
<path d="" fill="#041504" transform="translate(0,0)"/>
<path d="" fill="#031303" transform="translate(0,0)"/>
<path d="" fill="#031503" transform="translate(0,0)"/>
<path d="" fill="#031303" transform="translate(0,0)"/>
<path d="" fill="#031503" transform="translate(0,0)"/>
<path d="" fill="#041404" transform="translate(0,0)"/>
<path d="" fill="#031503" transform="translate(0,0)"/>
<path d="" fill="#021402" transform="translate(0,0)"/>
<path d="" fill="#031403" transform="translate(0,0)"/>
<path d="" fill="#031503" transform="translate(0,0)"/>
<path d="" fill="#031503" transform="translate(0,0)"/>
</svg>
